<svg width="34" height="33" viewBox="0 0 34 33" fill="none" xmlns="http://www.w3.org/2000/svg">
<path d="M21.4999 29.333C23.6999 22.59 26.1309 20.1572 32.4999 18.333C26.1309 16.5088 23.6999 14.076 21.4999 7.33301C19.2999 14.076 16.8689 16.5088 10.4999 18.333C16.8689 20.1572 19.2999 22.59 21.4999 29.333ZM6.83325 12.833C7.93325 9.45967 9.14875 8.24417 12.3333 7.33301C9.14875 6.42184 7.93325 5.20634 6.83325 1.83301C5.73325 5.20634 4.51775 6.42184 1.33325 7.33301C4.51775 8.24417 5.73325 9.45967 6.83325 12.833ZM9.58325 31.1663C10.1333 29.4797 10.7401 28.8728 12.3333 28.4163C10.7401 27.9598 10.1333 27.353 9.58325 25.6663C9.03325 27.353 8.42642 27.9598 6.83325 28.4163C8.42642 28.8728 9.03325 29.4797 9.58325 31.1663Z" stroke="black" stroke-width="2" stroke-linejoin="round"/>
</svg>
