<?xml version="1.0" encoding="UTF-8"?>
<svg id="Layer_2" data-name="Layer 2" xmlns="http://www.w3.org/2000/svg" viewBox="0 0 318.15 343.48">
  <defs>
    <style>
      .cls-1 {
        fill: #292924;
      }

      .cls-2 {
        fill: #838e49;
      }

      .cls-3 {
        fill: #f8f2ea;
      }

      .cls-4 {
        fill: #292924;
      }
    </style>
  </defs>
  <g id="Layer_6" data-name="Layer 6">
    <path class="cls-2" d="M268.31,186.98c4.5-1.05,9.14-2.16,12.86-4.88,3.72-2.72,6.3-7.51,4.98-11.87-.83-2.74-3.01-4.84-5.1-6.82-2.19-2.06-3.58-5.62-6.56-6.18-5.72-1.08-10.99,4.37-15.22,8.35-4.23,3.98-6.85,10.18-4.9,15.58,1.94,5.4,8.94,6.98,13.94,5.82Z"/>
    <path class="cls-2" d="M50.48,186.1c-4.6,1.25-9.35,2.57-13.03,5.5-3.69,2.93-6.06,7.93-4.43,12.34,1.03,2.77,3.42,4.84,5.71,6.78,2.39,2.02,4.06,5.61,7.18,6.07,5.99.89,11.12-4.89,15.26-9.13,4.14-4.24,6.47-10.69,4.12-16.14-2.35-5.45-9.7-6.8-14.81-5.42Z"/>
    <path class="cls-4" d="M278.77,160.66c15.46-11.78,23.39-14.66,28.93-33.29,5.54-18.63,5.85-31.4,4.29-50.77-1.23-15.31-4.12-31.02-12.68-43.78-8.57-12.75-23.97-21.89-39.1-19.2-2.86.51-5.69,1.42-8.59,1.38s-6.05-1.32-7.24-3.97c20.92-8.69,47.49-.38,59.73,18.68,6.04,9.4,8.66,20.56,10.59,31.56,3.95,22.49,5.7,46.88-1.41,68.58-6.39,19.48-10.96,18.65-30.36,36.3-1.41-1.44-2.2-4.02-4.16-5.49Z"/>
    <path class="cls-4" d="M35.6,205.99c-13.59,11.61-23.79,27.14-29.04,44.22,1.18.44,2.36.88,3.54,1.32,5.94-16.72,17.35-31.44,32.04-41.38-2.28-.14-4.52-1-6.54-4.16Z"/>
    <path class="cls-2" d="M240.36,14.12c-1.72.3-2.6,3.35-1.81,4.91,1.42,2.84,6.43,1,9.31-.34s5.1-4.31,4.99-7.48c-.12-3.51-2.96-6.43-6.15-7.9-7.45-3.43-17.33.14-20.86,7.54-.64,1.35-1.05,3.08-.1,4.23,1.22,1.49,3.73.82,5.07-.55s2.1-3.26,3.53-4.55c1.64-1.48,4.11-1.97,6.19-1.23,2.08.74,3.69,2.67,4.04,4.86-1.64.8-2.8.26-4.21.52Z"/>
    <path class="cls-2" d="M7.88,249.81c-3.18.18-5.83,2.79-6.96,5.77s-1.02,6.28-.72,9.45c.16,1.76.39,3.54,1.08,5.17s1.9,3.11,3.55,3.75c3.07,1.19,6.63-.97,8.13-3.9s1.49-6.38,1.45-9.68c.71,1.51,3.01,1.73,4.26.62s1.44-3.07.82-4.61-1.91-2.72-3.29-3.66c-2.98-2.02-6.56-3.01-8.31-2.91Z"/>
    <path class="cls-4" d="M33.97,51.08c-6.3-6.79-5.79-19.2-1.27-21.91,3.72-2.23,15.82-4.03,19.66-5.52,9.35-3.61,5.67-12.68,14.18-17.96,4.46-2.77,14.94-5.42,18.39-1.47s-.1,6.5-.53,11.74c-.64,7.79,17.91,3.8,22.9,4.74s8.32-6.48,12.59-9.59c3.06-2.23,5.87-6.46,9.35-7.8,10.74-4.15,24.57-2.86,36.29-2.86,10.86,0,22.49-1.6,31.68,1.37,5.51,1.78,7.5,6.59,11.45,10.97,3.2,3.54,5.53,7.95,9.42,10.7,3.89,2.76,9.08-.6,11.31-4.81,1.62-3.05-.22-6.4,2.36-8.7,2.21-1.97,7.84-4.06,11.32-.59,2.58,2.58,5.11,7.94,7.11,10.11,7.05,7.64,21.03-.69,27.21,7.67,4.25,5.74,3.73,12.09-1.27,16.53-2.82,2.5-6.89,2.82-10.65,3-77.02,3.87-155.72,5.23-231.52,4.39Z"/>
    <path class="cls-2" d="M29.52,69.32c13.68,10.58,21.57,27.25,24.99,44.2s2.84,34.42,2.44,51.7c-1.14,49.71-.6,99.46,1.62,149.14.3,6.82.89,14.27,5.58,19.24,5.07,5.38,13.23,6.1,20.61,6.48,45.02,2.32,90.12,4.64,135.15,2.53,10.07-.47,21.15-1.62,28.08-8.95,6.55-6.94,7.4-17.34,7.86-26.88,3.09-64.04,4.75-128.14,4.97-192.25.05-15.58.8-33.04,12.14-43.72,3.15-2.96,6.96-5.2,9.85-8.41,2.89-3.21,4.77-7.93,3.01-11.88-2.37-5.3-9.41-6.16-15.21-6.22-76.43-.92-152.87,1.77-229.19,6.03-4.16.23-8.43.49-12.23,2.19-3.8,1.7-7.11,5.17-7.37,9.33s3.52,8.46,7.71,7.47Z"/>
    <path class="cls-4" d="M257.14,258.78c3.5-1.61,7.72-1.57,11.19.1,3.47,1.67,6.14,4.93,7.08,8.67,1.44,5.74-1.02,12.17,1.42,17.57,1.24,2.75,3.69,5.04,3.97,8.04.39,4.13-3.42,7.35-4.85,11.25-.89,2.42-.85,5.08-.78,7.66.11,4.54.21,9.09.32,13.63.08,3.54.13,7.25-1.42,10.43-2.07,4.25-6.96,6.85-11.68,6.49s-9.04-3.49-11.15-7.73c-2.02-4.08-2.07-8.81-2.08-13.37-.02-18.14-.04-36.37,2.67-54.31.3-1.97.64-3.97,1.57-5.73s2.55-3.27,3.73-2.7Z"/>
    <path class="cls-4" d="M51.56,259.61c-3.87-1.61-8.53-1.57-12.37.1-3.84,1.67-6.79,4.93-7.83,8.67-1.59,5.74,1.13,12.17-1.57,17.57-1.37,2.75-4.08,5.04-4.39,8.04-.43,4.13,3.78,7.35,5.37,11.25.99,2.42.93,5.08.87,7.66-.12,4.54-.24,9.09-.35,13.63-.09,3.54-.15,7.25,1.57,10.43,2.29,4.25,7.69,6.85,12.91,6.49,5.21-.36,9.99-3.49,12.32-7.73,2.24-4.08,2.29-8.81,2.29-13.37.02-18.14.04-36.37-2.96-54.31-.33-1.97-.71-3.97-1.73-5.73-1.02-1.76-2.82-3.27-4.13-2.7Z"/>
    <path class="cls-3" d="M177.59,149.56c0-10.3,8.59-16.5,23.5-16.5s25,5.35,25,15.64-10.09,17.36-25,17.36-23.5-6.2-23.5-16.5Z"/>
    <path class="cls-1" d="M187.5,143.65c0-2.67.55-6.61,2.7-8.49,2.63-2.3,7.28-2.26,11.64-2.26,4.65,0,9.78.16,12.4,2.73,1.84,1.81,1.94,5.57,1.94,8.02,0,5.94-6.42,10.75-14.34,10.75s-14.34-4.81-14.34-10.75Z"/>
    <path class="cls-3" d="M95.59,149.65c0-10.3,8.59-16.5,23.5-16.5s25,5.35,25,15.64-10.09,17.36-25,17.36-23.5-6.2-23.5-16.5Z"/>
    <path class="cls-1" d="M105.5,143.73c0-2.67.55-6.61,2.7-8.49,2.63-2.3,7.28-2.26,11.64-2.26,4.65,0,9.78.16,12.4,2.73,1.84,1.81,1.94,5.57,1.94,8.02,0,5.94-6.42,10.75-14.34,10.75s-14.34-4.81-14.34-10.75Z"/>
    <ellipse class="cls-1" cx="157.77" cy="206.78" rx="11.51" ry="13"/>
  </g>
</svg>