<svg width="32" height="36" viewBox="0 0 32 36" fill="none" xmlns="http://www.w3.org/2000/svg">
<path d="M1.3335 12.667H30.6668M1.3335 12.667V28.8003C1.3335 30.8537 1.3335 31.8803 1.73316 32.665C2.08469 33.3549 2.6456 33.9158 3.3355 34.2673C4.11833 34.667 5.145 34.667 7.19466 34.667H24.8057C26.8553 34.667 27.8802 34.667 28.663 34.2673C29.3542 33.9153 29.9152 33.3543 30.2672 32.665C30.6668 31.8803 30.6668 30.8573 30.6668 28.8077V12.667M1.3335 12.667V11.2003C1.3335 9.14699 1.3335 8.12033 1.73316 7.33566C2.08516 6.64449 2.64433 6.08533 3.3355 5.73333C4.12016 5.33366 5.14683 5.33366 7.20016 5.33366H8.66683M30.6668 12.667V11.1948C30.6668 9.14516 30.6668 8.11849 30.2672 7.33566C29.9152 6.64548 29.3536 6.08454 28.663 5.73333C27.8802 5.33366 26.8535 5.33366 24.8002 5.33366H23.3335M8.66683 5.33366H23.3335M8.66683 5.33366V1.66699M23.3335 5.33366V1.66699" stroke="#ADAEBC" stroke-width="2" stroke-linecap="round" stroke-linejoin="round"/>
</svg>
