<svg width="98" height="99" viewBox="0 0 98 99" fill="none" xmlns="http://www.w3.org/2000/svg">
<path d="M64.375 39.25L43.875 59.75L33.625 49.5M49 95.625C42.9428 95.625 36.9449 94.4319 31.3487 92.1139C25.7526 89.796 20.6678 86.3984 16.3847 82.1153C12.1016 77.8322 8.70406 72.7474 6.38606 67.1513C4.06806 61.5551 2.875 55.5572 2.875 49.5C2.875 43.4428 4.06806 37.4449 6.38606 31.8487C8.70406 26.2526 12.1016 21.1678 16.3847 16.8847C20.6678 12.6016 25.7526 9.20405 31.3487 6.88606C36.9449 4.56806 42.9428 3.375 49 3.375C61.2331 3.375 72.9652 8.23458 81.6153 16.8847C90.2654 25.5348 95.125 37.2669 95.125 49.5C95.125 61.7331 90.2654 73.4652 81.6153 82.1153C72.9652 90.7654 61.2331 95.625 49 95.625Z" stroke="#838E49" stroke-width="5" stroke-linecap="round" stroke-linejoin="round"/>
</svg>
