<?xml version="1.0" encoding="UTF-8"?>
<svg id="Layer_2" data-name="Layer 2" xmlns="http://www.w3.org/2000/svg" viewBox="0 0 300.78 343.44">
  <defs>
    <style>
      .cls-1 {
        fill: #292924;
      }

      .cls-2 {
        fill: #f8f2ea;
      }

      .cls-3 {
        fill: #89a2b6;
      }

      .cls-4 {
        fill: #c26b2a;
      }
    </style>
  </defs>
  <g id="Layer_2-2" data-name="Layer 2">
    <path class="cls-4" d="M48.96,149.09c-3.32-4.17-6.78-8.46-11.63-11.17-4.85-2.71-11.5-3.44-15.82-.36-2.71,1.93-4.07,4.98-5.32,7.9-1.3,3.04-4.68,5.88-3.91,9.13,1.48,6.25,10.15,9.47,16.67,12.2,6.51,2.73,14.79,2.94,20-1.19,5.21-4.13,3.69-11.88.01-16.51Z"/>
    <path class="cls-1" d="M21.16,146.5c-6.65-5.88-13.65-20.25-13.09-37.77.58-18.22,8.82-39.69,6.74-51.29-1.52-.64-3.1-.11-4.34,1.69,1.86,11.55-6.7,33.28-7.26,51.05-.62,19.76,7,35.35,14.63,41.98.8-2.08,1.6-4.15,3.31-5.66Z"/>
    <path class="cls-4" d="M201.97,146.29c3.16-3.72,6.45-7.54,10.62-9.49,4.17-1.95,9.51-1.55,12.5,2.36,1.88,2.46,2.54,5.83,3.14,9.05.62,3.36,2.91,6.86,1.87,10.07-1.99,6.18-9.24,7.99-14.73,9.67-5.49,1.68-12.03.47-15.58-4.68-3.55-5.14-1.33-12.87,2.17-16.99Z"/>
    <path class="cls-1" d="M226.24,145.79c8.52-4.19,21.73-36.3,24.38-51.79,2.76-16.11-2.41-36.22,2.09-46.11,1.81-.34,3.77-1.72,4.81.04-4.24,9.89.96,32.34-1.75,48.05-3.01,17.47-17.93,51.46-27.69,56.17-.5-1.94-.21-4.79-1.84-6.37Z"/>
    <rect class="cls-1" x="149.97" y="193.98" width="6.75" height="134.76"/>
    <rect class="cls-1" x="87.55" y="193.98" width="6.75" height="134.76"/>
    <path class="cls-4" d="M150.25,322.67c-.6,2.6-.53,2.79,1.86,3.38,2.39.58,2.6.48,4.33-1.35.69-.73-.4-2.01.56-2.24,1.66-.39,6.16,1.34,7.37,2.6,2.38,2.5,6.2,2.32,9.56,2.18s7.31.23,9.1,3.23c1.71,2.86.39,6.87-2.1,9s-5.8,2.8-8.99,3.21c-8.45,1.08-16.99.78-25.5.48-.96-.03-2.01-.11-2.7-.8-.69-.69-.82-1.78-.9-2.78-.29-3.58-.51-7.16-.64-10.74-.06-1.72-.04-3.62,1.04-4.91s7.52-3.47,7-1.25Z"/>
    <path class="cls-4" d="M94.1,322.67c.6,2.6.53,2.79-1.86,3.38s-2.6.48-4.33-1.35c-.69-.73.4-2.01-.56-2.24-1.66-.39-6.16,1.34-7.37,2.6-2.38,2.5-6.2,2.32-9.56,2.18-3.36-.14-7.31.23-9.1,3.23-1.71,2.86-.39,6.87,2.1,9,2.49,2.13,5.8,2.8,8.99,3.21,8.45,1.08,16.99.78,25.5.48.96-.03,2.01-.11,2.7-.8.69-.69.82-1.78.9-2.78.29-3.58.51-7.16.64-10.74.06-1.72.04-3.62-1.04-4.91-1.09-1.28-7.52-3.47-7-1.25Z"/>
    <circle class="cls-4" cx="122.18" cy="139.89" r="87.03"/>
    <ellipse class="cls-2" cx="90.97" cy="128.14" rx="21.23" ry="21.74"/>
    <ellipse class="cls-1" cx="90.97" cy="117.41" rx="13.5" ry="10.73"/>
    <ellipse class="cls-2" cx="153.34" cy="128.14" rx="21.23" ry="21.74"/>
    <ellipse class="cls-1" cx="153.34" cy="117.41" rx="13.5" ry="10.91"/>
    <ellipse class="cls-1" cx="122.18" cy="177.57" rx="10.5" ry="10.91"/>
    <path class="cls-3" d="M202.8,84.44c2.92,1.08,4.16,5.4,2.28,7.97s-6.21,2.47-7.98-.18c2.28,1.34,2.42,5.09.62,7.07-1.8,1.98-4.84,2.28-7.3,1.34-2.45-.94-4.41-2.92-6.09-5.01,1.98-1.81-.09-5.46-2.66-6.02-2.58-.56-5.18.59-7.8.85s-5.89-1.09-6.01-3.83c2.98-1.98,1.82-7.79-1.66-8.38,1.7,3.03-2.19,7.31-5.19,5.71.79-2.52.95-6.28-1.54-6.79-2.05-.42-3.46,1.98-4.39,3.93-.93,1.95-2.93,4.11-4.73,3.01-1.56-2.02-.86-4.95-.36-7.49s.35-5.82-1.91-6.89c-1.47-.69-3.16-.09-4.76.09s-3.65-.5-3.8-2.17c-.12-1.42,1.27-2.64,1.11-4.06-.2-1.82-2.51-2.25-3.89-3.38-2.66-2.18-1.23-7.07,1.76-8.72s6.61-1.09,10.43-1.03c3.57-1.32,6.74-3.8,8.94-7.01.11,5.07,5.09,9.4,9.9,8.62,1.28-.21,2.52-.72,3.82-.77s2.76.54,3.2,1.81c.3.88.07,1.94.58,2.71.73,1.08,2.44.74,3.32-.22s1.25-2.29,1.93-3.41c1.95-3.2,6.73-4,9.55-1.59s3,7.44.37,10.06c1.04,4.09,6.28,6.28,9.75,4.08-.22,2.77-.43,5.61.29,8.29.72,2.68,2.58,5.2,5.18,5.84.93,2.5-.93,5.67-2.95,5.56Z"/>
    <path class="cls-3" d="M226.14,28.28c13.71-7.89,27.42-15.78,41.13-23.66,4.48-2.58,9.41-5.25,14.52-4.48,6.66,1,11,7.31,14.51,13.05,2.82,4.61,5.74,10.05,3.92,15.14-1.77,4.95-7.29,7.35-12.32,8.87-15.36,4.64-31.47,6.26-47.51,6.86-3.68.14-7.48.21-10.93-1.08s-6.53-4.27-6.84-7.94c-.31-3.67,3.11-7.52,3.51-6.75Z"/>
    <path class="cls-4" d="M216.54,35.63c.36,1.88,1.1,3.69,2.18,5.27.81,1.19,1.87,2.3,3.24,2.76s3.09.08,3.85-1.15c.84-1.37.26-3.14-.39-4.61-.66-1.48-1.37-2.93-2.14-4.36-.49-.92-1.04-1.85-1.9-2.44-1.47-1-3.7-.6-4.73.85s-.67,3.69-.11,3.68Z"/>
    <path class="cls-3" d="M218.68,36.61c-1,.2-2.05.42-2.86,1.04s-1.31,1.78-.86,2.7c.54,1.1,2.03,1.28,3.24,1.1,1.15-.18,2.33-.58,3.1-1.46s.99-2.31.24-3.21-2.5-.73-2.86-.17Z"/>
    <path class="cls-3" d="M197.64,35.94l-3.47,5.75c1.33,1.26,3.06,2.15,4.88,2.22s3.72-.75,4.72-2.28.89-3.76-.41-5.05c-.78-.77-1.88-1.15-2.97-1.25-1.96-.18-4.08.56-5.21,2.18s-1.01,4.1,2.45-1.56Z"/>
    <path class="cls-3" d="M212.63,41.36c-3.25,1.64-5.54,5.03-5.87,8.66,1.93.02,3.84-1.02,4.87-2.65s1.16-3.8,1-6.01Z"/>
    <path class="cls-3" d="M199.03,54.26c-1.19-.31-2.51.56-2.82,1.75s.32,2.52,1.36,3.16,2.42.64,3.54.13c1.31-.6,2.3-1.91,2.37-3.35s-.88-2.91-2.26-3.31-3.04.43-2.19,1.62Z"/>
    <path class="cls-3" d="M69.72,224.86c-2.6,2.23-4.37,5.39-4.93,8.76-.38,2.29.15,5.17,2.34,5.94,1.65.58,3.54-.44,4.48-1.91s1.17-3.29,1.3-5.04c.27-3.6.25-7.23-.05-10.83-1.03,1.55-2.06,3.1-3.14,3.07Z"/>
    <path class="cls-3" d="M135.79,87.09c-3.27,1.02-6.15,3.21-8.01,6.09-1.26,1.95-1.92,4.81-.21,6.38,1.29,1.19,3.42,1,4.87.03s2.38-2.55,3.19-4.11c1.68-3.2,3.1-6.53,4.25-9.96-1.56,1.01-3.12,2.03-4.1,1.57Z"/>
    <path class="cls-3" d="M188.96,111.81c-2,2.78-2.98,6.27-2.73,9.68.17,2.31,1.37,4.99,3.67,5.22,1.74.17,3.33-1.26,3.91-2.91s.36-3.47.08-5.2c-.59-3.56-1.46-7.08-2.6-10.51-.63,1.75-1.27,3.5-2.32,3.72Z"/>
    <path class="cls-3" d="M180.08,160.28c2.87,2.23,4.84,5.39,5.46,8.76.42,2.29-.17,5.17-2.59,5.94-1.83.58-3.92-.44-4.97-1.91s-1.3-3.29-1.44-5.04c-.3-3.6-.28-7.23.06-10.83,1.14,1.55,2.28,3.1,3.47,3.07Z"/>
    <path class="cls-3" d="M164.92,221.6c-.68,3.54-1.36,7.08-2.04,10.62-.18.92-.35,1.89-.02,2.76.49,1.31,2.1,2.02,3.45,1.65s2.35-1.66,2.55-3.04c.6-4.09-4.74-7.55-3.94-11.99Z"/>
    <path class="cls-3" d="M98.66,264.64c-1.13,1.78-2.3,3.74-2.12,5.84s2.44,4.1,4.34,3.18c.96-.46,1.52-1.52,1.67-2.57s-.05-2.12-.24-3.17c-.56-2.99-1.12-5.97-1.68-8.96-.79,2.02-1.06,4.25-1.96,5.68Z"/>
    <path class="cls-4" d="M7.54,55.8c1.26,2.76,4.95,3.74,7.82,2.77s5.01-3.39,6.64-5.95c1.07-1.68,2-3.53,2.14-5.52s-.64-4.15-2.35-5.18-4.32-.49-5.11,1.35c-.49-3.55-1.05-7.26-3.16-10.16s-6.3-4.62-9.39-2.81c-1.9,1.12-2.96,3.27-3.53,5.41-2.22,8.29,2,17.85,6.94,20.09Z"/>
    <path class="cls-4" d="M249.96,47.08c-1.64-1.37-3.3-2.79-4.34-4.65s-1.35-4.26-.24-6.08,3.91-2.57,5.51-1.16c1.68,1.48,1.31,4.26,2.66,6.04,1.39,1.83,4.34,1.96,6.21.62,1.34-.96,2.58-2.62,4.19-2.26,1.43.31,2.01,2.21,1.44,3.56s-1.89,2.21-3.18,2.91c-2.49,1.35-5.26,2.4-8.08,2.2-2.83-.2-5.68-1.93-4.18-1.17Z"/>
  </g>
</svg>