<?xml version="1.0" encoding="UTF-8"?>
<svg id="Layer_2" data-name="Layer 2" xmlns="http://www.w3.org/2000/svg" viewBox="0 0 133.94 133.94">
  <defs>
    <style>
      .cls-1 {
        fill: #292924;
      }

      .cls-2 {
        fill: none;
        stroke: #292924;
        stroke-linecap: round;
        stroke-miterlimit: 10;
        stroke-width: 4px;
      }

      .cls-3 {
        fill: #838e49;
      }

      .cls-4 {
        fill: #f8f2ea;
      }
    </style>
  </defs>
  <g id="Layer_1-2" data-name="Layer 1">
    <rect class="cls-3" width="133.94" height="133.94" rx="20.82" ry="20.82"/>
    <path class="cls-2" d="M26.66,81.98c4.78,5.92,13.31,9.68,22.3,11.35,8.99,1.67,18.46,1.46,27.77.84,5.87-.39,11.82-.95,17.3-2.67,5.48-1.73,10.5-4.78,12.77-8.91"/>
    <path class="cls-4" d="M32.54,38.74c-3.45,3.08-6.73,6.76-7.65,11.29s1.43,9.99,5.93,11.05c3.05.72,6.17-.66,9.3-.88,3.04-.22,6.03.65,9.06.99s6.4.01,8.56-2.13c2.74-2.7,2.5-7.29.95-10.81-2.26-5.16-6.92-9.19-12.35-10.69s-11.72-.7-13.81,1.18Z"/>
    <path class="cls-4" d="M82.81,37.74c-3.45,3.08-6.73,6.76-7.65,11.29s1.43,9.99,5.93,11.05c3.05.72,6.17-.66,9.3-.88,3.04-.22,6.03.65,9.06.99s6.4.01,8.56-2.13c2.74-2.7,2.5-7.29.95-10.81-2.26-5.16-6.92-9.19-12.35-10.69s-11.72-.7-13.81,1.18Z"/>
    <path class="cls-1" d="M85.44,59.98c3.55-.73,7.27-1.11,10.76-.17.86.23,2.56.75,3.34.34.62-.33.72-1.26.93-1.94.77-2.47-.41-5.07-2.14-6.99s-4.44-2.88-7.01-2.57-4.94,1.87-6.33,4.05c-.67,1.06-1.13,2.28-1.16,3.53s.4,2.79,1.6,3.74Z"/>
    <path class="cls-1" d="M35.44,60.98c3.55-.73,7.27-1.11,10.76-.17.86.23,2.56.75,3.34.34.62-.33.72-1.26.93-1.94.77-2.47-.41-5.07-2.14-6.99s-4.44-2.88-7.01-2.57-4.94,1.87-6.33,4.05c-.67,1.06-1.13,2.28-1.16,3.53s.4,2.79,1.6,3.74Z"/>
  </g>
</svg>