<svg width="36" height="36" viewBox="0 0 36 36" fill="none" xmlns="http://www.w3.org/2000/svg">
<path d="M23.5 16.1667L18 21.6667L12.5 16.1667M34.5 18C34.5 15.8332 34.0732 13.6876 33.244 11.6857C32.4148 9.68385 31.1994 7.86491 29.6673 6.33274C28.1351 4.80057 26.3161 3.58519 24.3143 2.75599C22.3124 1.92679 20.1668 1.5 18 1.5C15.8332 1.5 13.6876 1.92679 11.6857 2.75599C9.68385 3.58519 7.8649 4.80057 6.33274 6.33274C4.80057 7.86491 3.58519 9.68385 2.75599 11.6857C1.92678 13.6876 1.5 15.8332 1.5 18C1.5 22.3761 3.23839 26.5729 6.33274 29.6673C9.42709 32.7616 13.6239 34.5 18 34.5C22.3761 34.5 26.5729 32.7616 29.6673 29.6673C32.7616 26.5729 34.5 22.3761 34.5 18Z" stroke="#838E49" stroke-width="2" stroke-linecap="round" stroke-linejoin="round"/>
</svg>
