<svg width="36" height="36" viewBox="0 0 36 36" fill="none" xmlns="http://www.w3.org/2000/svg">
<path d="M12.3333 5.33317H7.19998C5.14665 5.33317 4.11998 5.33317 3.33531 5.73284C2.64542 6.08437 2.08451 6.64527 1.73298 7.33517C1.33331 8.11984 1.33331 9.1465 1.33331 11.1998V28.7998C1.33331 30.8532 1.33331 31.8798 1.73298 32.6645C2.08451 33.3544 2.64542 33.9153 3.33531 34.2668C4.11815 34.6665 5.14481 34.6665 7.19448 34.6665H24.8055C26.8551 34.6665 27.88 34.6665 28.6628 34.2668C29.354 33.9148 29.915 33.3538 30.267 32.6645C30.6666 31.8798 30.6666 30.855 30.6666 28.8053V23.6665M23.3333 7.1665L12.3333 18.1665V23.6665H17.8333L28.8333 12.6665M23.3333 7.1665L28.8333 1.6665L34.3333 7.1665L28.8333 12.6665M23.3333 7.1665L28.8333 12.6665" stroke="black" stroke-width="2" stroke-linecap="round" stroke-linejoin="round"/>
</svg>
