<svg width="25" height="25" viewBox="0 0 25 25" fill="none" xmlns="http://www.w3.org/2000/svg">
<path fill-rule="evenodd" clip-rule="evenodd" d="M4.6875 12.5C4.6875 10.428 5.5106 8.44086 6.97573 6.97573C8.44086 5.5106 10.428 4.6875 12.5 4.6875C14.572 4.6875 16.5591 5.5106 18.0243 6.97573C19.4894 8.44086 20.3125 10.428 20.3125 12.5C20.3125 14.572 19.4894 16.5591 18.0243 18.0243C16.5591 19.4894 14.572 20.3125 12.5 20.3125C10.428 20.3125 8.44086 19.4894 6.97573 18.0243C5.5106 16.5591 4.6875 14.572 4.6875 12.5ZM12.5 3.125C11.2689 3.125 10.0498 3.36749 8.91234 3.83863C7.77492 4.30977 6.74142 5.00032 5.87087 5.87087C5.00032 6.74142 4.30977 7.77492 3.83863 8.91234C3.36749 10.0498 3.125 11.2689 3.125 12.5C3.125 13.7311 3.36749 14.9502 3.83863 16.0877C4.30977 17.2251 5.00032 18.2586 5.87087 19.1291C6.74142 19.9997 7.77492 20.6902 8.91234 21.1614C10.0498 21.6325 11.2689 21.875 12.5 21.875C14.9864 21.875 17.371 20.8873 19.1291 19.1291C20.8873 17.371 21.875 14.9864 21.875 12.5C21.875 10.0136 20.8873 7.62903 19.1291 5.87087C17.371 4.11272 14.9864 3.125 12.5 3.125ZM9.63542 10.9375C9.98075 10.9375 10.3119 10.8003 10.5561 10.5561C10.8003 10.3119 10.9375 9.98075 10.9375 9.63542C10.9375 9.29008 10.8003 8.95889 10.5561 8.7147C10.3119 8.47052 9.98075 8.33333 9.63542 8.33333C9.29008 8.33333 8.95889 8.47052 8.7147 8.7147C8.47052 8.95889 8.33333 9.29008 8.33333 9.63542C8.33333 9.98075 8.47052 10.3119 8.7147 10.5561C8.95889 10.8003 9.29008 10.9375 9.63542 10.9375ZM16.6667 9.63542C16.6667 9.98075 16.5295 10.3119 16.2853 10.5561C16.0411 10.8003 15.7099 10.9375 15.3646 10.9375C15.0192 10.9375 14.6881 10.8003 14.4439 10.5561C14.1997 10.3119 14.0625 9.98075 14.0625 9.63542C14.0625 9.29008 14.1997 8.95889 14.4439 8.7147C14.6881 8.47052 15.0192 8.33333 15.3646 8.33333C15.7099 8.33333 16.0411 8.47052 16.2853 8.7147C16.5295 8.95889 16.6667 9.29008 16.6667 9.63542ZM9.0625 14.2979L9.05833 14.2896C8.97738 14.1027 8.82663 13.9548 8.63822 13.8774C8.4498 13.8 8.23862 13.7993 8.04967 13.8754C7.86072 13.9514 7.70895 14.0983 7.62671 14.2846C7.54446 14.471 7.53824 14.6821 7.60938 14.8729L8.33333 14.5833C7.60833 14.8729 7.60833 14.875 7.60833 14.875L7.60938 14.8771L7.61146 14.8812L7.61562 14.8927C7.63567 14.9414 7.65757 14.9894 7.68125 15.0365C7.94246 15.5536 8.28343 16.0264 8.69167 16.4375C9.4625 17.2073 10.6938 17.9687 12.5 17.9687C14.3062 17.9687 15.5385 17.2073 16.3073 16.4375C16.6216 16.1241 16.8963 15.7732 17.125 15.3927C17.2204 15.2308 17.307 15.0639 17.3844 14.8927L17.3885 14.8812L17.3906 14.8771V14.875C17.3906 14.875 17.3917 14.8729 16.6667 14.5833L17.3917 14.8729C17.4587 14.6831 17.4498 14.4748 17.3669 14.2913C17.2841 14.1079 17.1336 13.9635 16.9469 13.8883C16.7602 13.8131 16.5517 13.8128 16.3648 13.8876C16.1779 13.9623 16.0271 14.1063 15.9437 14.2896L15.9396 14.2979L15.9135 14.3542C15.7283 14.715 15.4887 15.0453 15.2031 15.3333C14.6698 15.8656 13.8177 16.4062 12.5 16.4062C11.1823 16.4062 10.3302 15.8656 9.79687 15.3333C9.51167 15.0452 9.27242 14.715 9.0875 14.3542L9.0625 14.2979Z" fill="black"/>
</svg>
