<?xml version="1.0" encoding="UTF-8"?>
<svg id="Layer_2" data-name="Layer 2" xmlns="http://www.w3.org/2000/svg" viewBox="0 0 304.3 192.77">
  <defs>
    <style>
      .cls-1 {
        fill: #c26b2a;
      }

      .cls-2 {
        fill: #292924;
      }

      .cls-3 {
        fill: #838e49;
      }

      .cls-4 {
        fill: #f8f2ea;
      }

      .cls-5 {
        fill: #89a2b6;
      }

      .cls-6 {
        fill: none;
        stroke: #292924;
        stroke-linecap: round;
        stroke-miterlimit: 10;
        stroke-width: 3px;
      }
    </style>
  </defs>
  <g id="Layer_3" data-name="Layer 3">
    <rect class="cls-2" x="88.28" y="115.77" width="4.03" height="69.43"/>
    <rect class="cls-2" x="50.97" y="115.77" width="4.03" height="69.43"/>
    <path class="cls-3" d="M30.62,130.84c-1.36-.45-2.26-1.77-2.22-3.23l2.09-63.28c0-.98-.59-1.83-1.63-1.92h-5.3c-1.72-.15-1.87-2.15-.64-3.29L71.51,14.46c.79-.73,2.07-.73,2.87,0l48.47,44.95c1.29,1.2.39,3.27-1.43,3.27h-4.79c-1.13,0-2.04.86-2.04,1.91l2.85,60.16c.09,1.9-.76,3.71-2.26,4.83-.7.53-1.35,1.02-1.61,1.26-.3.28-.65.5-1.03.5H32.74c-.47,0-1.31-.23-2.13-.5Z"/>
    <path class="cls-3" d="M88.45,182.08c-.36,1.34-.32,1.44,1.11,1.74s1.55.25,2.59-.69c.41-.38-.24-1.03.34-1.15.99-.2,3.68.69,4.4,1.34,1.43,1.29,3.71,1.2,5.72,1.12,2.01-.07,4.37.12,5.44,1.67,1.02,1.47.24,3.54-1.25,4.63-1.49,1.1-3.47,1.44-5.37,1.65-5.05.56-10.16.4-15.24.25-.57-.02-1.2-.05-1.62-.41-.41-.36-.49-.92-.54-1.43-.18-1.84-.3-3.69-.38-5.54-.04-.89-.03-1.87.62-2.53s4.49-1.79,4.19-.65Z"/>
    <path class="cls-3" d="M51.18,182.08c-.36,1.34-.32,1.44,1.11,1.74s1.55.25,2.59-.69c.41-.38-.24-1.03.34-1.15.99-.2,3.68.69,4.4,1.34,1.43,1.29,3.71,1.2,5.72,1.12,2.01-.07,4.37.12,5.44,1.67,1.02,1.47.24,3.54-1.25,4.63-1.49,1.1-3.47,1.44-5.37,1.65-5.05.56-10.16.4-15.24.25-.57-.02-1.2-.05-1.62-.41-.41-.36-.49-.92-.54-1.43-.18-1.84-.3-3.69-.38-5.54-.04-.89-.03-1.87.62-2.53s4.49-1.79,4.19-.65Z"/>
    <rect class="cls-2" x="218.11" y="115.03" width="3.89" height="69.43"/>
    <rect class="cls-2" x="254.13" y="115.03" width="3.89" height="69.43"/>
    <g>
      <ellipse class="cls-5" cx="235.89" cy="88.24" rx="47.44" ry="46.33" transform="translate(-13.08 50.26) rotate(-11.84)"/>
      <path class="cls-5" d="M256.5,54.35c8.37-12.38,16.73-24.76,25.1-37.13,2.72-4.02,5.48-8.09,9.06-11.36s8.14-5.72,12.99-5.85c1.89,3.29-.78,7.25-3.29,10.08-12.98,14.65-25.95,29.29-38.93,43.94-.35-.64-.7-1.27-4.94.32Z"/>
    </g>
    <path class="cls-5" d="M221.84,181.33c.35,1.34.31,1.44-1.07,1.74-1.38.3-1.5.25-2.5-.69-.4-.38.23-1.03-.32-1.15-.96-.2-3.55.69-4.25,1.34-1.38,1.29-3.58,1.2-5.52,1.12-1.94-.07-4.22.12-5.25,1.67-.99,1.47-.23,3.54,1.21,4.63,1.44,1.1,3.35,1.44,5.19,1.65,4.88.56,9.81.4,14.72.25.55-.02,1.16-.05,1.56-.41.4-.36.47-.92.52-1.43.17-1.84.29-3.69.37-5.54.04-.89.03-1.87-.6-2.53-.63-.66-4.34-1.79-4.04-.65Z"/>
    <path class="cls-5" d="M257.82,181.33c.35,1.34.31,1.44-1.07,1.74s-1.5.25-2.5-.69c-.4-.38.23-1.03-.32-1.15-.96-.2-3.55.69-4.25,1.34-1.38,1.29-3.58,1.2-5.52,1.12-1.94-.07-4.22.12-5.25,1.67-.99,1.47-.23,3.54,1.21,4.63,1.44,1.1,3.35,1.44,5.19,1.65,4.88.56,9.81.4,14.72.25.55-.02,1.16-.05,1.56-.41.4-.36.47-.92.52-1.43.17-1.84.29-3.69.37-5.54.04-.89.03-1.87-.6-2.53s-4.34-1.79-4.04-.65Z"/>
    <ellipse class="cls-4" cx="53.91" cy="70.44" rx="12.5" ry="12.12"/>
    <circle class="cls-2" cx="58.79" cy="71.74" r="6.44"/>
    <ellipse class="cls-4" cx="92.41" cy="70.44" rx="12.5" ry="12.12"/>
    <circle class="cls-2" cx="97.29" cy="71.74" r="6.44"/>
    <ellipse class="cls-4" cx="253.48" cy="79.73" rx="12.5" ry="12.12"/>
    <circle class="cls-2" cx="249.73" cy="84.86" r="6.44"/>
    <ellipse class="cls-4" cx="214.98" cy="79.73" rx="12.5" ry="12.12"/>
    <circle class="cls-2" cx="211.09" cy="84.86" r="6.44"/>
    <path class="cls-6" d="M56.67,94.23c1.68,2.3,4.81,3.87,8.14,4.66,3.33.79,6.89.88,10.39.82,2.21-.04,4.44-.14,6.53-.68,2.08-.55,4.02-1.6,4.94-3.1"/>
    <ellipse class="cls-2" cx="233.83" cy="102.79" rx="4.25" ry="5"/>
    <path class="cls-2" d="M116.07,90.32c4.1,3.48,12.51,6.7,21.21,5.42,9.04-1.34,18.4-7.25,24.58-6.69.58.83.59,1.77-.1,2.58-6.12-.43-15.54,5.68-24.37,6.97-9.81,1.44-18.94-2.06-23.58-6.07.9-.57,1.81-1.15,2.27-2.21Z"/>
    <path class="cls-3" d="M117.01,88.62c2.56-.81,5.2-1.62,7.82-1.38,2.62.25,5.22,1.86,5.74,4.39.33,1.6-.2,3.27-.72,4.87-.54,1.66-.28,3.83-1.62,4.98-2.59,2.22-6.74,1.08-9.95.36-3.22-.72-6.23-3.01-6.72-6.25-.49-3.24,2.61-6.08,5.45-6.97Z"/>
    <path class="cls-2" d="M193.8,101.06c-2.93,2.83-9.01,5.19-15.36,3.61-6.61-1.64-13.53-7.29-18.02-7.13-.41.7-.4,1.51.12,2.25,4.45-.05,11.42,5.77,17.87,7.37,7.17,1.78,13.77-.8,17.08-4.05-.67-.55-1.34-1.1-1.69-2.05Z"/>
    <path class="cls-5" d="M192.47,98.86c-2.35-.86-4.77-1.74-7.2-1.55-2.43.19-4.88,1.74-5.42,4.26-.34,1.59.1,3.28.54,4.88.46,1.67.16,3.83,1.38,5.02,2.34,2.27,6.21,1.23,9.2.58,2.99-.65,5.84-2.87,6.37-6.1.53-3.23-2.27-6.14-4.87-7.09Z"/>
    <path class="cls-2" d="M275.74,103.21c4.4,1.21,10.49,5.55,13.32,12.2,2.94,6.92,2.58,16.21,5.69,20.24.88.01,1.59-.43,1.89-1.28-2.99-4.05-2.51-13.48-5.38-20.23-3.19-7.5-9.81-12.2-14.84-13.54-.04.9-.07,1.8-.67,2.62Z"/>
    <path class="cls-5" d="M275.93,102.96c.57,2.43,1.18,4.94,2.68,6.86,1.5,1.92,4.14,3.11,6.55,2.17,1.51-.59,2.68-1.89,3.77-3.15,1.14-1.31,3.11-2.25,3.42-3.92.61-3.21-2.4-5.85-4.59-8-2.19-2.14-5.61-3.29-8.6-1.95-2.99,1.34-3.87,5.28-3.23,7.97Z"/>
    <path class="cls-2" d="M31.93,101.32c-5.14,1.57-12.39,6.93-15.99,14.94-3.74,8.34-3.81,19.4-7.61,24.31-1.02.04-1.81-.46-2.12-1.47,3.66-4.92,3.59-16.15,7.26-24.28,4.07-9.04,11.94-14.85,17.82-16.6,0,1.07,0,2.14.64,3.1Z"/>
    <path class="cls-3" d="M34.46,100.5c-.7,2.59-1.44,5.26-3.06,7.33-1.62,2.07-4.38,3.4-6.8,2.47-1.52-.59-2.65-1.93-3.71-3.23-1.11-1.35-3.08-2.29-3.32-4.05-.47-3.38,2.72-6.26,5.06-8.58,2.34-2.32,5.89-3.62,8.89-2.29,2.99,1.33,3.71,5.48,2.94,8.35Z"/>
    <path class="cls-3" d="M6.66,138.73c1.1-1.4,3.44-1.47,5.04-.55s2.6,2.58,3.26,4.24c.44,1.09.77,2.26.61,3.41-.16,1.15-.9,2.27-2.05,2.63s-2.66-.29-2.91-1.43c-.73,1.95-1.52,3.98-3.15,5.35s-4.36,1.8-5.99.37c-1.01-.88-1.38-2.24-1.46-3.53-.31-4.99,3.4-9.86,6.64-10.49Z"/>
    <path class="cls-5" d="M298.16,133.16c-.82-1.6-3.23-2.17-5.1-1.61-1.87.56-3.27,1.97-4.33,3.45-.7.98-1.3,2.05-1.4,3.2s.42,2.41,1.53,3c1.11.6,2.82.28,3.33-.78.32,2.06.69,4.21,2.06,5.89,1.37,1.68,4.11,2.68,6.12,1.63,1.24-.65,1.93-1.9,2.3-3.14,1.45-4.81-1.3-10.36-4.52-11.66Z"/>
    <path class="cls-2" d="M143.92,171.55c-.19,3.88.02,7.8.62,11.62.75-.31,1.4-1,1.79-1.89,2.32,1.93,5.39,2.22,7.9.74.98,2.09,3.77,1.92,4.61-.27.12,1.14.87,2.11,1.73,2.25s1.77-.57,2.09-1.63c.54,2.4,3.61,2.67,4.39.4,3.47,2.42,7.94,2.16,11.23-.67.16,1.36,1.18,2.45,2.22,2.36s1.96-1.33,1.99-2.7c-.23,1.68,1.81,2.5,2.78,1.37s1.08-3.04,1.11-4.75c.84,1.36,1.71,2.75,2.9,3.53s2.79.77,3.7-.5c.65.81,1.69,1.04,2.51.54,1.32-3.32-.37-7.59-2.86-9.42-2.49-1.82-5.48-1.85-8.33-1.83-7.15.05-14.3.1-21.45.21-6.3.1-12.61.24-18.94.65Z"/>
    <path class="cls-1" d="M153.08,52.03c4.84,37.38,8.65,74.73,11.43,112,.15,2.04.31,4.13,1.22,6.12.9,1.98,2.72,3.87,4.97,4.45-2.65-36.83-6.38-73.74-11.18-110.68-.69-5.35-1.6-11.1-5.64-15.54-1.38,1.05-1.58,3.16-.8,3.66Z"/>
    <path class="cls-1" d="M146.63,167.26c12.34-.44,24.67-.88,37.01-1.33,2-.07,4.06-.13,5.92.81s3.51,3.16,3.54,5.78c-15.74,2.69-31.74,2.75-47.49.16-1.76-.29-3.76-.82-4.64-2.84,1.75-2.3,4.55-2.54,5.66-2.58Z"/>
    <path class="cls-3" d="M161.87,86.64c-.89.22-1.48,1.1-1.64,2s.04,1.82.23,2.71c.14.63.28,1.27.59,1.84s.83,1.05,1.47,1.16c.77.14,1.56-.3,2.03-.93s.69-1.4.86-2.17c.22-1,.37-2.01.4-3.03.02-.6,0-1.22-.28-1.76-.44-.88-1.52-1.36-2.49-1.19s-1.79.94-1.17,1.36Z"/>
    <path class="cls-3" d="M157.44,89.66c-.53-.63-1.06-1.27-1.38-2.03s-.37-1.67.06-2.37,1.41-1.08,2.12-.67c.83.48.89,1.64.84,2.59-.07,1.46-.13,2.93-.2,4.39-.01.29-.04.61-.23.83-.39.46-1.22.15-1.49-.4s-.2-1.19-.23-1.79-.25-1.3.5-.56Z"/>
    <path class="cls-5" d="M164.45,97.87c.33-.66-.02-1.57-.75-1.95s-1.74-.18-2.16.44-.18,1.55.52,2c.21.14.46.24.64.41.37.36.31.9.21,1.36s-.2.98.1,1.38c.35.45,1.12.52,1.6.23s.72-.81.8-1.34c.16-1.07-.23-2.23-.97-2.53Z"/>
    <path class="cls-5" d="M158.18,96.41c-1.05.35-1.7,1.34-1.85,2.32s.09,1.97.34,2.94c.27,1.05.63,2.2,1.66,2.76.62.34,1.58.33,1.93-.23.18-.28.16-.62.14-.94-.16-2.31-.36-4.73-1.73-6.72-.24-.02-.47-.04-.49-.14Z"/>
  </g>
</svg>