<?xml version="1.0" encoding="UTF-8"?>
<svg id="Layer_2" data-name="Layer 2" xmlns="http://www.w3.org/2000/svg" viewBox="0 0 241.15 259.49">
  <defs>
    <style>
      .cls-1 {
        fill: #292924;
      }

      .cls-2 {
        fill: #838e49;
      }

      .cls-3 {
        fill: #89a2b6;
      }

      .cls-4 {
        fill: #f8f2ea;
      }

      .cls-5 {
        fill: #292924;
      }
    </style>
  </defs>
  <g id="Layer_10" data-name="Layer 10">
    <path class="cls-3" d="M11.5,43.01c1.8-7.77,10.56-11,18.08-12.74,44.19-10.2,90.29-12.81,134.87-4.57,3.24.6,6.56,1.29,9.36,3.09,2.8,1.8,5.02,4.97,4.85,8.38-.19,3.8-3.12,6.78-5.98,9.15-17.61,14.6-40.09,21.92-62.55,23.82-22.46,1.9-45.05-1.32-67.14-6.01-6.51-1.38-13.12-2.94-18.87-6.41-5.75-3.47-10.59-9.19-12.63-14.71Z"/>
    <rect class="cls-1" x="128.69" y="148.6" width="4.34" height="96.03" transform="translate(-39.8 33.34) rotate(-12.62)"/>
    <polygon class="cls-1" points="63.72 247.78 79.08 154.51 83.37 155.56 68.01 248.83 63.72 247.78"/>
    <path class="cls-2" d="M138.47,239.68c.03,1.89.1,2.02,1.69,2.09,1.59.07,1.7-.03,2.5-1.55.32-.61-.56-1.34,0-1.63.98-.51,4.07.07,5.03.77,1.88,1.4,4.25.74,6.34.17,2.08-.57,4.62-.86,6.21.97,1.52,1.75,1.32,4.72.09,6.55-1.23,1.83-3.2,2.76-5.14,3.49-5.13,1.94-10.54,2.93-15.92,3.91-.61.11-1.28.21-1.82-.18-.54-.38-.79-1.12-1-1.81-.74-2.44-1.43-4.91-2.07-7.38-.31-1.19-.59-2.51-.11-3.56s4.17-3.47,4.2-1.85Z"/>
    <path class="cls-2" d="M68.58,244.6c.09,1.9.02,2.02-1.57,2.05s-1.71-.07-2.6-1.61c-.36-.62.48-1.33-.1-1.63-1.01-.53-4.07-.03-4.98.65-1.8,1.36-4.21.64-6.33.02-2.12-.62-4.68-.98-6.16.82-1.41,1.71-1.03,4.69.31,6.55,1.34,1.86,3.37,2.84,5.35,3.62,5.25,2.06,10.72,3.19,16.17,4.3.61.13,1.29.24,1.81-.13.52-.37.73-1.1.89-1.78.59-2.43,1.14-4.88,1.63-7.34.24-1.18.44-2.5-.11-3.56-.55-1.06-4.39-3.57-4.31-1.96Z"/>
    <path class="cls-2" d="M10.65,46.61c5.17,29.39,11.83,54.65,17,84.04,1.69,9.62,3.4,19.52,8.41,27.79,7.1,11.74,20.05,18.59,33.18,21.11,13.13,2.52,26.62,1.24,39.92-.05,14.15-1.37,29.28-3.15,40.13-12.68,12.15-10.66,15.83-28.21,18.8-44.43,5.52-30.16,6.33-34.8,13.01-71.32,5.36-29.3-9.58-11.3-37.74,1.6-23.65,10.84-83.06,12.43-105.49-.92-5.23-3.11-29.57-18.5-27.22-5.14Z"/>
    <path class="cls-2" d="M31.46,49.35c3.01-8.02-.3-18.05-7.41-22.48-4.33-2.69-10.14-3.86-12.31-8.59-1.35-2.95-.75-6.59.99-9.31s4.45-4.63,7.32-5.97C29.27-1.33,40.47-.18,49.17,5.19c8.7,5.37,14.89,14.63,17.58,24.76,2.68,10.13,2.01,21.05-1.01,31.07-1.52-.35-3.04-.69-4.57-1.04,4.21-10.92,3.24-23.85-2.54-33.96-5.78-10.12-16.24-17.19-27.49-18.6-2.65-.33-5.46-.34-7.84.91s-4.19,4.04-3.61,6.74c.82,3.83,5.27,5.13,8.51,7.14,4.98,3.1,7.79,9.07,8.62,15.04.83,5.97-.06,12.04-.94,18-.93-2.66-2.82-4.95-4.42-5.9Z"/>
    <path class="cls-2" d="M129.78,22.33c3.2-10.06,12.14-17.4,21.93-20.4,9.79-3,20.33-2.16,30.29.17,1.92.45,3.96,1.03,5.21,2.6,2.38,2.98.47,7.75-2.58,9.99s-6.89,2.94-10.23,4.68c-3.34,1.73-6.41,5.33-5.54,9.09-1.39-.94-2.77-1.88-4.16-2.82,1.7-4.57,5.48-8.26,9.98-9.72,1.93-.63,4.01-.88,5.75-1.96,1.74-1.07,3.04-3.37,2.19-5.28-.81-1.8-3-2.32-4.9-2.58-8.41-1.16-17.12-1.67-25.26.81-8.14,2.48-15.7,8.44-18.35,16.81-1.29-.31-2.57-.61-4.35-1.4Z"/>
    <ellipse class="cls-4" cx="71.52" cy="97.65" rx="18.41" ry="18.72"/>
    <ellipse class="cls-5" cx="77.38" cy="100.18" rx="10.15" ry="10.48"/>
    <ellipse class="cls-4" cx="132.69" cy="97.65" rx="18.41" ry="18.72"/>
    <ellipse class="cls-5" cx="138.55" cy="100.18" rx="10.15" ry="10.48"/>
    <path class="cls-2" d="M169.5,110.1c1.14-1.55,2.3-3.12,3.89-4.2s3.72-1.56,5.45-.74c2.13,1,3.02,3.56,3.27,5.9.33,3.01-.04,6.15-1.45,8.83s-3.91,4.84-6.87,5.47c-4.39.93-9.33-2.16-10.11-6.58s3.1-9.15,5.81-8.68Z"/>
    <path class="cls-3" d="M194.08,35.09c-5.18.23-7.33,7.02-6.33,12.1,1,5.08,3.71,10.06,2.76,15.15-.47,2.5-1.81,4.83-1.92,7.37s1.87,5.5,4.36,4.97c1.12-.24,2.01-1.14,3.12-1.44,1.96-.54,4.02.98,4.79,2.86s.58,4.01.34,6.03c-.7,5.93-1.67,11.92-.93,17.85s3.49,11.94,8.61,15.02c4.02,2.42,9.23,2.71,13.49.76,4.26-1.95,7.45-6.08,8.26-10.7.46-2.67.57-6.06,3.06-7.12,1.04-.44,2.24-.3,3.34-.57,4.32-1.06,4.66-7.09,3.58-11.41-3.77-15.07-12.82-28.18-21.7-40.92-3.16-4.53-6.52-9.24-11.47-11.69s-11.95-1.7-13.38,1.74Z"/>
    <path class="cls-2" d="M201.92,44.83c2.39,2.45,6.69,2.44,9.35.29s3.67-5.97,2.86-9.3-3.21-6.12-6.14-7.9c-1.83-1.11-4.01-1.87-6.09-1.37s-3.83,2.64-3.31,4.71c.41,1.62,1.94,2.64,3.17,3.78s2.25,2.99,1.37,4.41c-1.41,2.28-6.14,1.02-6.72,3.63,2.64,2.2,5.99,3.55,5.51,1.73Z"/>
    <path class="cls-5" d="M203.64,44.59c9.38,19.78-.96,55.13-21.41,64.39-5.26,2.38-1.03,1-1.18,6.77,11.62-5.26,20.09-14.63,25.79-26.05,5.7-11.41,8.59-24.79,5.82-37.25-.55-2.48-1.38-5.09-3.36-6.69s-5.43-1.57-5.67-1.18Z"/>
    <path class="cls-5" d="M17.29,131.81C8.83,140.11-.13,149.5,0,160.57c.15,12.18,11.49,23.43,8.58,35.35,1.55-.13,3.1-.26,4.65-.38,1.62-9.26-5.54-17.82-8.02-26.94-3.6-13.28,4.02-28.23,17.78-34.89-.71-1.1-1.41-2.2-2.12-3.3-1.42.82-2.83,1.64-3.59,1.41Z"/>
    <path class="cls-2" d="M25.62,118.43c-4.7,1.13-8.63,5.03-9.8,9.72s.47,9.98,4.09,13.18c.54.48,1.16.93,1.87,1.02,1.1.14,2.1-.58,2.94-1.3,3.59-3.11,6.57-7.27,6.98-12s-2.4-9.91-6.09-10.62Z"/>
    <path class="cls-3" d="M5.37,208.29c3.58,5.15,5.88,11.18,6.66,17.4.19,1.5.32,3.09,1.2,4.31.92,1.27,2.52,1.9,4.09,2.07,2.82.31,5.61-.66,8.24-1.72,2.88-1.17,5.78-2.53,7.98-4.73s3.63-5.4,2.98-8.45-3.81-5.56-6.84-4.84c-1.69.4-3.16,1.68-4.9,1.63-2.03-.06-3.52-1.92-4.42-3.73-1.27-2.55-2-5.37-2.11-8.21-.06-1.4-.08-3.05-1.23-3.85-1.03-.72-2.44-.37-3.64.03-2.1.7-4.18,1.46-6.23,2.27-1.67.66-3.49,1.53-4.09,3.22-.43,1.23-.07,2.63.63,3.73s1.73,1.95,1.68.88Z"/>
    <path class="cls-2" d="M10.97,195.35c-4.17.51-7.76,4.12-8.24,8.3s2.19,8.51,6.14,9.95c1.54.56,3.29.7,4.8.07s2.7-2.16,2.63-3.8c-.04-1.11-.62-2.13-1.13-3.11s-1-2.07-.84-3.18,1.23-2.14,2.31-1.85c.65.17,1.12.76,1.76.96.75.23,1.6-.16,2.05-.8s.56-1.48.45-2.25c-.36-2.58-2.91-4.41-5.48-4.81s-5.18.31-4.46.53Z"/>
    <ellipse class="cls-5" cx="102.78" cy="137.33" rx="9.25" ry="6.75"/>
  </g>
</svg>