<svg width="25" height="26" viewBox="0 0 25 26" fill="none" xmlns="http://www.w3.org/2000/svg">
<path d="M9.37501 22.4238H15.625M12.5 3.67383C11.3727 3.67356 10.2663 3.9782 9.29797 4.55549C8.32967 5.13278 7.53554 5.96121 6.99969 6.95305C6.46384 7.94488 6.20624 9.06318 6.25415 10.1895C6.30207 11.3158 6.65373 12.4082 7.27188 13.3509C8.26563 14.8634 8.76147 15.6197 8.82709 15.7322C9.40001 16.7374 9.2948 16.3832 9.36667 17.5384C9.37501 17.6676 9.37501 17.8645 9.37501 18.2572C9.37501 18.5334 9.48475 18.7984 9.6801 18.9937C9.87545 19.1891 10.1404 19.2988 10.4167 19.2988H14.5833C14.8596 19.2988 15.1246 19.1891 15.3199 18.9937C15.5153 18.7984 15.625 18.5334 15.625 18.2572C15.625 17.8645 15.625 17.6676 15.6333 17.5384C15.7063 16.3822 15.599 16.7374 16.1729 15.7322C16.2375 15.6197 16.7354 14.8634 17.7281 13.3499C18.346 12.4071 18.6974 11.3149 18.7452 10.1887C18.793 9.06257 18.5353 7.94447 17.9995 6.9528C17.4637 5.96113 16.6697 5.13283 15.7015 4.55559C14.7334 3.97836 13.6272 3.67368 12.5 3.67383Z" stroke="black" stroke-width="1.5" stroke-linecap="round" stroke-linejoin="round"/>
</svg>
