<?xml version="1.0" encoding="UTF-8"?>
<svg id="Layer_2" data-name="Layer 2" xmlns="http://www.w3.org/2000/svg" viewBox="0 0 414.57 315.3">
  <defs>
    <style>
      .cls-1 {
        font-family: PlusJakartaSans-Bold, 'Plus Jakarta Sans';
        font-size: 48px;
        font-variation-settings: 'wght' 700;
        font-weight: 700;
      }

      .cls-2 {
        letter-spacing: 0em;
      }

      .cls-3 {
        fill: #292924;
      }

      .cls-4 {
        letter-spacing: 0em;
      }

      .cls-5 {
        fill: #838e49;
      }

      .cls-6 {
        fill: #f8f2ea;
      }
    </style>
  </defs>
  <g id="Layer_2-2" data-name="Layer 2">
    <path class="cls-5" d="M97.64,204.2c-3.59-.95-5.84-7.99-5.84-7.99l5.52-89.54c0-2.08-1.55-3.86-4.3-4.06h-13.97c-4.54-.33-4.94-4.55-1.69-6.96L205.37,1.17c2.09-1.56,5.46-1.55,7.55,0l127.7,95.12c3.41,2.54,1.02,6.92-3.78,6.92h-12.61c-2.97,0-5.37,1.81-5.37,4.04l7.52,89.05c.24,4.01-1.6,5.29-5.54,7.66"/>
    <path class="cls-6" d="M230.72,149.56c0-16.72,12.92-30.28,28.85-30.28s28.85,13.55,28.85,30.28-16.42,16.25-30.06,16.25c-16.43,0-27.63.47-27.63-16.25Z"/>
    <path class="cls-3" d="M240.13,158.16c0-10.91,8.7-19.76,19.43-19.76s19.43,8.85,19.43,19.76-9.31,7.65-20.04,7.65-18.83,3.26-18.83-7.65Z"/>
    <path class="cls-6" d="M129.85,148.97c0-16.72,12.92-30.28,28.85-30.28s28.85,13.55,28.85,30.28-16.42,16.25-30.06,16.25c-16.43,0-27.63.47-27.63-16.25Z"/>
    <path class="cls-3" d="M139.26,158.3c0-10.91,8.7-19.76,19.43-19.76s19.43,8.85,19.43,19.76-9.31,7.65-20.04,7.65-18.83,3.26-18.83-7.65Z"/>
    <text class="cls-1" transform="translate(6.19 252.58)"><tspan class="cls-2" x="0" y="0">C</tspan><tspan class="cls-4" x="36.67" y="0">ommon Ground</tspan></text>
  </g>
</svg>