<?xml version="1.0" encoding="UTF-8"?>
<svg id="Layer_2" data-name="Layer 2" xmlns="http://www.w3.org/2000/svg" viewBox="0 0 396.91 253.15">
  <defs>
    <style>
      .cls-1 {
        fill: #292924;
      }

      .cls-2 {
        fill: #838e49;
      }

      .cls-3 {
        fill: #f8f2ea;
      }
    </style>
  </defs>
  <g id="Layer_2-2" data-name="Layer 2">
    <path class="cls-2" d="M89.09,204.2c-3.59-.95-5.84-7.99-5.84-7.99l5.52-89.54c0-2.08-1.55-3.86-4.3-4.06h-13.97c-4.54-.33-4.94-4.55-1.69-6.96L196.83,1.17c2.09-1.56,5.46-1.55,7.55,0l127.7,95.12c3.41,2.54,1.02,6.92-3.78,6.92h-12.61c-2.97,0-5.37,1.81-5.37,4.04l7.52,89.05c.24,4.01-1.6,5.29-5.54,7.66"/>
    <path class="cls-3" d="M222.18,149.56c0-16.72,12.92-30.28,28.85-30.28s28.85,13.55,28.85,30.28-16.42,16.25-30.06,16.25c-16.43,0-27.63.47-27.63-16.25Z"/>
    <path class="cls-1" d="M231.59,158.16c0-10.91,8.7-19.76,19.43-19.76s19.43,8.85,19.43,19.76-9.31,7.65-20.04,7.65-18.83,3.26-18.83-7.65Z"/>
    <path class="cls-3" d="M121.3,148.97c0-16.72,12.92-30.28,28.85-30.28s28.85,13.55,28.85,30.28-16.42,16.25-30.06,16.25c-16.43,0-27.63.47-27.63-16.25Z"/>
    <path class="cls-1" d="M130.71,158.3c0-10.91,8.7-19.76,19.43-19.76s19.43,8.85,19.43,19.76-9.31,7.65-20.04,7.65-18.83,3.26-18.83-7.65Z"/>
    <g>
      <path d="M17.9,253.15c-2.56,0-4.93-.46-7.1-1.39-2.18-.93-4.06-2.22-5.66-3.89-1.6-1.66-2.86-3.62-3.77-5.86-.91-2.24-1.37-4.69-1.37-7.34s.45-5.11,1.34-7.37c.9-2.26,2.15-4.21,3.77-5.86,1.62-1.65,3.5-2.93,5.66-3.84,2.16-.91,4.54-1.37,7.13-1.37s4.86.43,6.89,1.3c2.03.86,3.75,2.01,5.16,3.43,1.41,1.42,2.42,2.98,3.02,4.68l-5.86,2.78c-.67-1.82-1.81-3.32-3.41-4.49-1.6-1.17-3.54-1.75-5.81-1.75s-4.22.53-5.93,1.58c-1.71,1.06-3.04,2.51-3.98,4.37-.94,1.86-1.42,4.03-1.42,6.53s.47,4.68,1.42,6.55c.94,1.87,2.27,3.34,3.98,4.39,1.71,1.06,3.69,1.58,5.93,1.58s4.21-.58,5.81-1.75c1.6-1.17,2.74-2.65,3.41-4.44l5.86,2.74c-.61,1.7-1.62,3.26-3.02,4.68-1.41,1.42-3.13,2.57-5.16,3.43-2.03.86-4.33,1.3-6.89,1.3Z"/>
      <path d="M49.97,253.15c-2.53,0-4.84-.59-6.94-1.78-2.1-1.18-3.77-2.8-5.02-4.85-1.25-2.05-1.87-4.38-1.87-7.01s.62-4.96,1.87-7.01c1.25-2.05,2.91-3.66,4.99-4.85,2.08-1.18,4.4-1.78,6.96-1.78s4.93.59,7.01,1.78c2.08,1.18,3.74,2.79,4.97,4.82,1.23,2.03,1.85,4.38,1.85,7.03s-.62,4.96-1.87,7.01-2.91,3.66-4.99,4.85c-2.08,1.18-4.4,1.78-6.96,1.78ZM49.97,247.39c1.44,0,2.7-.34,3.77-1.01,1.07-.67,1.92-1.61,2.54-2.81s.94-2.55.94-4.06-.31-2.85-.94-4.03c-.62-1.18-1.47-2.11-2.54-2.78-1.07-.67-2.33-1.01-3.77-1.01s-2.66.34-3.74,1.01-1.94,1.6-2.57,2.78c-.62,1.18-.94,2.53-.94,4.03s.31,2.86.94,4.06,1.48,2.14,2.57,2.81c1.09.67,2.34,1.01,3.74,1.01Z"/>
      <path d="M68.5,252.58v-26.11h5.95v6.05l-.67-.96c.48-1.92,1.44-3.34,2.88-4.27s3.14-1.39,5.09-1.39c2.14,0,4.03.56,5.66,1.68s2.69,2.59,3.17,4.42l-1.78.14c.8-2.08,2-3.64,3.6-4.68,1.6-1.04,3.44-1.56,5.52-1.56,1.86,0,3.51.42,4.97,1.25,1.46.83,2.6,1.99,3.43,3.48.83,1.49,1.25,3.21,1.25,5.16v16.8h-6.29v-15.31c0-1.15-.21-2.14-.62-2.98-.42-.83-1-1.47-1.75-1.92-.75-.45-1.64-.67-2.66-.67s-1.87.22-2.64.67c-.77.45-1.36,1.09-1.78,1.92-.42.83-.62,1.82-.62,2.98v15.31h-6.29v-15.31c0-1.15-.21-2.14-.62-2.98-.42-.83-1-1.47-1.75-1.92-.75-.45-1.64-.67-2.66-.67s-1.87.22-2.64.67c-.77.45-1.36,1.09-1.78,1.92-.42.83-.62,1.82-.62,2.98v15.31h-6.34Z"/>
      <path d="M112.85,252.58v-26.11h5.95v6.05l-.67-.96c.48-1.92,1.44-3.34,2.88-4.27s3.14-1.39,5.09-1.39c2.14,0,4.03.56,5.66,1.68s2.69,2.59,3.17,4.42l-1.78.14c.8-2.08,2-3.64,3.6-4.68,1.6-1.04,3.44-1.56,5.52-1.56,1.86,0,3.51.42,4.97,1.25,1.46.83,2.6,1.99,3.43,3.48.83,1.49,1.25,3.21,1.25,5.16v16.8h-6.29v-15.31c0-1.15-.21-2.14-.62-2.98-.42-.83-1-1.47-1.75-1.92-.75-.45-1.64-.67-2.66-.67s-1.87.22-2.64.67c-.77.45-1.36,1.09-1.78,1.92-.42.83-.62,1.82-.62,2.98v15.31h-6.29v-15.31c0-1.15-.21-2.14-.62-2.98-.42-.83-1-1.47-1.75-1.92-.75-.45-1.64-.67-2.66-.67s-1.87.22-2.64.67c-.77.45-1.36,1.09-1.78,1.92-.42.83-.62,1.82-.62,2.98v15.31h-6.34Z"/>
      <path d="M169.97,253.15c-2.53,0-4.84-.59-6.94-1.78-2.1-1.18-3.77-2.8-5.02-4.85-1.25-2.05-1.87-4.38-1.87-7.01s.62-4.96,1.87-7.01c1.25-2.05,2.91-3.66,4.99-4.85,2.08-1.18,4.4-1.78,6.96-1.78s4.93.59,7.01,1.78c2.08,1.18,3.74,2.79,4.97,4.82,1.23,2.03,1.85,4.38,1.85,7.03s-.62,4.96-1.87,7.01-2.91,3.66-4.99,4.85c-2.08,1.18-4.4,1.78-6.96,1.78ZM169.97,247.39c1.44,0,2.7-.34,3.77-1.01,1.07-.67,1.92-1.61,2.54-2.81s.94-2.55.94-4.06-.31-2.85-.94-4.03c-.62-1.18-1.47-2.11-2.54-2.78-1.07-.67-2.33-1.01-3.77-1.01s-2.66.34-3.74,1.01-1.94,1.6-2.57,2.78c-.62,1.18-.94,2.53-.94,4.03s.31,2.86.94,4.06,1.48,2.14,2.57,2.81c1.09.67,2.34,1.01,3.74,1.01Z"/>
      <path d="M188.49,252.58v-26.11h5.95v5.14l-.48-.91c.61-1.57,1.61-2.76,3-3.58,1.39-.82,3.02-1.22,4.87-1.22s3.62.42,5.11,1.25c1.49.83,2.65,1.99,3.48,3.48.83,1.49,1.25,3.21,1.25,5.16v16.8h-6.29v-15.31c0-1.15-.22-2.14-.67-2.98-.45-.83-1.07-1.47-1.87-1.92-.8-.45-1.71-.67-2.74-.67s-1.94.22-2.74.67c-.8.45-1.42,1.09-1.87,1.92-.45.83-.67,1.82-.67,2.98v15.31h-6.34Z"/>
      <path d="M243.02,253.15c-2.56,0-4.93-.46-7.1-1.39-2.18-.93-4.09-2.22-5.74-3.89-1.65-1.66-2.93-3.62-3.84-5.86-.91-2.24-1.37-4.69-1.37-7.34s.45-5.11,1.34-7.37c.9-2.26,2.15-4.21,3.77-5.86,1.62-1.65,3.5-2.93,5.66-3.84,2.16-.91,4.54-1.37,7.13-1.37s4.86.43,6.89,1.3c2.03.86,3.75,2.01,5.16,3.43,1.41,1.42,2.42,2.98,3.02,4.68l-5.81,2.78c-.67-1.82-1.82-3.32-3.43-4.49-1.62-1.17-3.56-1.75-5.83-1.75s-4.22.53-5.93,1.58c-1.71,1.06-3.04,2.51-3.98,4.37-.94,1.86-1.42,4.03-1.42,6.53s.49,4.68,1.46,6.55c.98,1.87,2.33,3.34,4.06,4.39,1.73,1.06,3.71,1.58,5.95,1.58,1.79,0,3.46-.36,4.99-1.08s2.78-1.74,3.72-3.07c.94-1.33,1.42-2.9,1.42-4.73v-2.74l2.98,2.59h-13.25v-5.52h16.8v3.6c0,2.75-.46,5.18-1.39,7.3-.93,2.11-2.18,3.89-3.77,5.33-1.58,1.44-3.37,2.51-5.35,3.22-1.98.7-4.03,1.06-6.14,1.06Z"/>
      <path d="M264.29,252.58v-26.11h5.95v5.81l-.48-.86c.61-1.95,1.56-3.31,2.86-4.08,1.3-.77,2.86-1.15,4.68-1.15h1.54v5.62h-2.26c-1.79,0-3.23.54-4.32,1.63-1.09,1.09-1.63,2.62-1.63,4.61v14.54h-6.34Z"/>
      <path d="M295,253.15c-2.53,0-4.84-.59-6.94-1.78-2.1-1.18-3.77-2.8-5.02-4.85-1.25-2.05-1.87-4.38-1.87-7.01s.62-4.96,1.87-7.01c1.25-2.05,2.91-3.66,4.99-4.85,2.08-1.18,4.4-1.78,6.96-1.78s4.93.59,7.01,1.78c2.08,1.18,3.74,2.79,4.97,4.82,1.23,2.03,1.85,4.38,1.85,7.03s-.62,4.96-1.87,7.01-2.91,3.66-4.99,4.85c-2.08,1.18-4.4,1.78-6.96,1.78ZM295,247.39c1.44,0,2.7-.34,3.77-1.01,1.07-.67,1.92-1.61,2.54-2.81s.94-2.55.94-4.06-.31-2.85-.94-4.03c-.62-1.18-1.47-2.11-2.54-2.78-1.07-.67-2.33-1.01-3.77-1.01s-2.66.34-3.74,1.01-1.94,1.6-2.57,2.78c-.62,1.18-.94,2.53-.94,4.03s.31,2.86.94,4.06,1.48,2.14,2.57,2.81c1.09.67,2.34,1.01,3.74,1.01Z"/>
      <path d="M322.89,253.15c-2.05,0-3.81-.45-5.28-1.34-1.47-.9-2.61-2.14-3.41-3.74-.8-1.6-1.2-3.47-1.2-5.62v-15.98h6.34v15.46c0,1.09.22,2.04.65,2.86.43.82,1.06,1.46,1.87,1.92s1.74.7,2.76.7,1.94-.23,2.74-.7c.8-.46,1.42-1.11,1.87-1.94.45-.83.67-1.82.67-2.98v-15.31h6.29v26.11h-5.95v-5.14l.48.91c-.61,1.6-1.6,2.8-2.98,3.6-1.38.8-2.99,1.2-4.85,1.2Z"/>
      <path d="M342,252.58v-26.11h5.95v5.14l-.48-.91c.61-1.57,1.61-2.76,3-3.58,1.39-.82,3.02-1.22,4.87-1.22s3.62.42,5.11,1.25c1.49.83,2.65,1.99,3.48,3.48.83,1.49,1.25,3.21,1.25,5.16v16.8h-6.29v-15.31c0-1.15-.22-2.14-.67-2.98-.45-.83-1.07-1.47-1.87-1.92-.8-.45-1.71-.67-2.74-.67s-1.94.22-2.74.67c-.8.45-1.42,1.09-1.87,1.92-.45.83-.67,1.82-.67,2.98v15.31h-6.34Z"/>
      <path d="M382.65,253.15c-2.53,0-4.79-.6-6.79-1.8-2-1.2-3.58-2.84-4.73-4.92-1.15-2.08-1.73-4.38-1.73-6.91s.58-4.86,1.75-6.91c1.17-2.05,2.74-3.68,4.73-4.9,1.98-1.22,4.22-1.82,6.72-1.82,1.98,0,3.75.39,5.3,1.18,1.55.79,2.78,1.88,3.67,3.29l-.96,1.3v-15.41h6.29v36.34h-5.95v-5.04l.67,1.25c-.9,1.44-2.14,2.53-3.74,3.26-1.6.74-3.34,1.1-5.23,1.1ZM383.32,247.39c1.41,0,2.66-.34,3.77-1.01,1.1-.67,1.97-1.6,2.59-2.78s.94-2.54.94-4.08-.31-2.85-.94-4.03c-.62-1.18-1.49-2.11-2.59-2.78s-2.36-1.01-3.77-1.01-2.67.34-3.79,1.01c-1.12.67-1.99,1.6-2.62,2.78-.62,1.18-.94,2.53-.94,4.03s.31,2.9.94,4.08,1.5,2.11,2.62,2.78c1.12.67,2.38,1.01,3.79,1.01Z"/>
    </g>
  </g>
</svg>