<?xml version="1.0" encoding="UTF-8"?>
<svg id="Layer_2" data-name="Layer 2" xmlns="http://www.w3.org/2000/svg" viewBox="0 0 241.36 273.02">
  <defs>
    <style>
      .cls-1 {
        fill: #292924;
      }

      .cls-2 {
        fill: none;
        stroke: #292924;
        stroke-linecap: round;
        stroke-linejoin: round;
        stroke-width: 5px;
      }

      .cls-3 {
        fill: #838e49;
      }

      .cls-4 {
        fill: #f8f2ea;
      }
    </style>
  </defs>
  <g id="Layer_1-2" data-name="Layer 1">
    <path class="cls-3" d="M20.26,271.86c-3.24-1.04-5.39-4.11-5.28-7.52l4.99-147.13c0-2.29-1.4-4.24-3.89-4.46H3.45c-4.1-.36-4.46-5-1.53-7.65L117.65,1.28c1.89-1.71,4.94-1.71,6.83,0l115.44,104.51c3.08,2.79.92,7.6-3.42,7.6h-11.4c-2.68,0-4.86,1.99-4.86,4.44l6.79,139.86c.21,4.41-1.81,8.62-5.38,11.23-1.67,1.22-3.22,2.38-3.82,2.94-.72.66-1.56,1.15-2.45,1.15H25.32c-1.11,0-3.11-.54-5.07-1.16Z"/>
    <path class="cls-4" d="M138.61,155.07c0-15.25,12.63-27.61,28.2-27.61s28.2,12.36,28.2,27.61-16.06,14.82-29.39,14.82c-16.07,0-27.02.43-27.02-14.82Z"/>
    <path class="cls-1" d="M147.81,162.91c0-9.95,8.51-18.02,19-18.02s19,8.07,19,18.02-9.1,6.97-19.59,6.97-18.41,2.98-18.41-6.97Z"/>
    <path class="cls-4" d="M45.98,158.18c0-15.25,12.63-27.61,28.2-27.61s28.2,12.36,28.2,27.61-16.06,14.82-29.39,14.82c-16.07,0-27.02.43-27.02-14.82Z"/>
    <path class="cls-1" d="M55.18,166.69c0-9.95,8.51-18.02,19-18.02s19,8.07,19,18.02-9.1,6.97-19.59,6.97-18.41,2.98-18.41-6.97Z"/>
    <path class="cls-2" d="M88.43,205.99c5.57,11.48,19.32,18,32.26,16.93,12.93-1.07,24.69-8.85,32.24-19.19"/>
  </g>
</svg>