<svg width="61" height="61" viewBox="0 0 61 61" fill="none" xmlns="http://www.w3.org/2000/svg">
<g clip-path="url(#clip0_175_1272)">
<path d="M51.518 0H9.48201C4.24524 0 0 4.24524 0 9.48201V51.518C0 56.7548 4.24524 61 9.48201 61H51.518C56.7548 61 61 56.7548 61 51.518V9.48201C61 4.24524 56.7548 0 51.518 0Z" fill="#FF88C8"/>
<path d="M12.1416 37.3359C14.3185 40.0321 18.2033 41.7445 22.2976 42.505C26.3919 43.2656 30.7048 43.17 34.9449 42.8876C37.6182 42.71 40.328 42.4549 42.8238 41.6716C45.3195 40.8837 47.6058 39.4947 48.6396 37.6137" stroke="#292924" stroke-width="2" stroke-miterlimit="10" stroke-linecap="round"/>
<path d="M14.8195 17.6429C13.2483 19.0456 11.7545 20.7216 11.3355 22.7847C10.9165 24.8478 11.9868 27.3344 14.0362 27.8171C15.4252 28.145 16.8462 27.5166 18.2717 27.4164C19.6562 27.3162 21.0179 27.7124 22.3978 27.8672C23.7778 28.0221 25.3126 27.8718 26.2963 26.8972C27.5442 25.6675 27.4349 23.5771 26.729 21.974C25.6997 19.624 23.5774 17.7886 21.1044 17.1055C18.6314 16.4223 15.7668 16.7867 14.815 17.6429H14.8195Z" fill="#F8F2EA"/>
<path d="M37.714 17.1878C36.1428 18.5905 34.649 20.2665 34.23 22.3296C33.811 24.3927 34.8813 26.8793 36.9307 27.3621C38.3198 27.69 39.7407 27.0615 41.1662 26.9613C42.5507 26.8611 43.9124 27.2573 45.2924 27.4122C46.6723 27.567 48.2071 27.4167 49.1908 26.4421C50.4387 25.2124 50.3294 23.122 49.6235 21.5189C48.5942 19.1689 46.4719 17.3335 43.9989 16.6504C41.526 15.9673 38.6613 16.3316 37.7095 17.1878H37.714Z" fill="#F8F2EA"/>
<path d="M38.9116 27.317C40.5284 26.9845 42.2226 26.8114 43.812 27.2395C44.2037 27.3443 44.9779 27.5811 45.3332 27.3944C45.6155 27.2441 45.6611 26.8205 45.7567 26.5109C46.1074 25.386 45.57 24.2018 44.7821 23.3274C43.9942 22.453 42.76 22.0158 41.5896 22.157C40.4191 22.2982 39.3397 23.0086 38.7067 24.0015C38.4016 24.4842 38.1921 25.0398 38.1784 25.6091C38.1647 26.1784 38.3606 26.8798 38.9071 27.3124L38.9116 27.317Z" fill="#292924"/>
<path d="M16.1404 27.772C17.7572 27.4396 19.4514 27.2665 21.0408 27.6946C21.4325 27.7994 22.2067 28.0362 22.5619 27.8495C22.8443 27.6992 22.8898 27.2756 22.9855 26.9659C23.3362 25.841 22.7988 24.6569 22.0109 23.7825C21.223 22.9081 19.9888 22.4709 18.8183 22.612C17.6479 22.7532 16.5685 23.4637 15.9355 24.4565C15.6303 24.9393 15.4208 25.4949 15.4072 26.0642C15.3935 26.6335 15.5893 27.3348 16.1358 27.7675L16.1404 27.772Z" fill="#292924"/>
</g>
<defs>
<clipPath id="clip0_175_1272">
<rect width="61" height="61" fill="white"/>
</clipPath>
</defs>
</svg>
