<svg width="23" height="23" viewBox="0 0 23 23" fill="none" xmlns="http://www.w3.org/2000/svg">
<path d="M5.8335 20.7504L7.4209 19.4807L7.43115 19.4724C7.7624 19.2067 7.93024 19.0734 8.1167 18.9786C8.28406 18.8932 8.46058 18.8313 8.646 18.7932C8.85329 18.7504 9.06862 18.7504 9.50195 18.7504H18.5449C19.7095 18.7504 20.293 18.7505 20.7378 18.5234C21.1298 18.3236 21.4482 18.005 21.6479 17.613C21.875 17.1671 21.875 16.5838 21.875 15.4213V7.49731C21.875 6.33273 21.875 5.74942 21.6479 5.30463C21.4479 4.91248 21.1287 4.59378 20.7363 4.39423C20.2915 4.16714 19.7082 4.16711 18.5415 4.16711H6.4585C5.29183 4.16711 4.70853 4.16714 4.2627 4.39423C3.87071 4.59396 3.55178 4.91264 3.35205 5.30463C3.12497 5.75046 3.125 6.33376 3.125 7.50043V19.4494C3.125 20.5598 3.12497 21.115 3.35205 21.3994C3.4497 21.522 3.57362 21.621 3.71484 21.689C3.85606 21.757 4.01123 21.7922 4.16797 21.7921C4.53255 21.7921 4.96579 21.4442 5.8335 20.7504Z" stroke="black" stroke-width="2" stroke-linecap="round" stroke-linejoin="round"/>
<path d="M-5874.39 -774.796C-5875.29 -774.796 -5876.13 -774.96 -5876.9 -775.289C-5877.67 -775.617 -5878.35 -776.076 -5878.93 -776.666C-5879.5 -777.255 -5879.96 -777.946 -5880.29 -778.74C-5880.6 -779.533 -5880.76 -780.4 -5880.76 -781.341C-5880.76 -782.281 -5880.61 -783.148 -5880.3 -783.942C-5879.99 -784.746 -5879.54 -785.438 -5878.98 -786.016C-5878.4 -786.605 -5877.72 -787.058 -5876.95 -787.376C-5876.18 -787.704 -5875.35 -787.869 -5874.44 -787.869C-5873.53 -787.869 -5872.72 -787.716 -5872.01 -787.41C-5871.28 -787.104 -5870.67 -786.696 -5870.17 -786.186C-5869.67 -785.687 -5869.32 -785.137 -5869.1 -784.537L-5871.16 -783.551C-5871.4 -784.208 -5871.8 -784.741 -5872.36 -785.149C-5872.93 -785.557 -5873.62 -785.761 -5874.44 -785.761C-5875.23 -785.761 -5875.93 -785.574 -5876.55 -785.2C-5877.15 -784.826 -5877.62 -784.31 -5877.96 -783.653C-5878.29 -782.995 -5878.45 -782.225 -5878.45 -781.341C-5878.45 -780.457 -5878.28 -779.68 -5877.94 -779.012C-5877.59 -778.354 -5877.11 -777.839 -5876.5 -777.465C-5875.88 -777.091 -5875.18 -776.904 -5874.39 -776.904C-5873.74 -776.904 -5873.15 -777.028 -5872.6 -777.278C-5872.06 -777.538 -5871.62 -777.901 -5871.29 -778.366C-5870.96 -778.842 -5870.8 -779.403 -5870.8 -780.049V-781.018L-5869.75 -780.1H-5874.44V-782.055H-5868.49V-780.78C-5868.49 -779.805 -5868.65 -778.944 -5868.98 -778.196C-5869.31 -777.448 -5869.76 -776.819 -5870.32 -776.309C-5870.88 -775.81 -5871.51 -775.43 -5872.21 -775.17C-5872.91 -774.92 -5873.64 -774.796 -5874.39 -774.796ZM-5866.85 -775V-784.248H-5864.62V-775H-5866.85ZM-5866.85 -785.285V-787.665H-5864.62V-785.285H-5866.85ZM-5859.77 -775L-5863.41 -784.248H-5860.98L-5858.35 -776.972H-5859.25L-5856.6 -784.248H-5854.16L-5857.8 -775H-5859.77ZM-5848.71 -774.796C-5849.67 -774.796 -5850.5 -775.011 -5851.21 -775.442C-5851.93 -775.872 -5852.48 -776.456 -5852.88 -777.193C-5853.28 -777.929 -5853.47 -778.745 -5853.47 -779.641C-5853.47 -780.57 -5853.28 -781.392 -5852.88 -782.106C-5852.47 -782.831 -5851.92 -783.403 -5851.23 -783.823C-5850.53 -784.242 -5849.75 -784.452 -5848.88 -784.452C-5848.16 -784.452 -5847.52 -784.333 -5846.98 -784.095C-5846.42 -783.857 -5845.95 -783.528 -5845.57 -783.109C-5845.18 -782.689 -5844.89 -782.208 -5844.68 -781.664C-5844.48 -781.131 -5844.38 -780.553 -5844.38 -779.93C-5844.38 -779.771 -5844.39 -779.607 -5844.41 -779.437C-5844.42 -779.267 -5844.45 -779.119 -5844.5 -778.995H-5851.64V-780.695H-5845.76L-5846.81 -779.896C-5846.71 -780.417 -5846.74 -780.882 -5846.89 -781.29C-5847.04 -781.698 -5847.29 -782.021 -5847.64 -782.259C-5847.98 -782.497 -5848.4 -782.616 -5848.88 -782.616C-5849.35 -782.616 -5849.76 -782.497 -5850.12 -782.259C-5850.49 -782.032 -5850.76 -781.692 -5850.96 -781.239C-5851.14 -780.797 -5851.21 -780.258 -5851.16 -779.624C-5851.21 -779.057 -5851.13 -778.553 -5850.94 -778.111C-5850.74 -777.68 -5850.44 -777.346 -5850.06 -777.108C-5849.66 -776.87 -5849.21 -776.751 -5848.7 -776.751C-5848.19 -776.751 -5847.76 -776.858 -5847.4 -777.074C-5847.04 -777.289 -5846.76 -777.578 -5846.55 -777.941L-5844.75 -777.057C-5844.93 -776.615 -5845.22 -776.224 -5845.6 -775.884C-5845.99 -775.544 -5846.45 -775.277 -5846.98 -775.085C-5847.5 -774.892 -5848.08 -774.796 -5848.71 -774.796ZM-5838.6 -775V-782.259H-5840.23V-784.248H-5838.6V-784.554C-5838.6 -785.256 -5838.46 -785.851 -5838.17 -786.339C-5837.88 -786.837 -5837.47 -787.217 -5836.95 -787.478C-5836.43 -787.738 -5835.81 -787.869 -5835.1 -787.869C-5834.96 -787.869 -5834.81 -787.857 -5834.65 -787.835C-5834.48 -787.823 -5834.34 -787.806 -5834.23 -787.784V-785.863C-5834.34 -785.885 -5834.45 -785.897 -5834.55 -785.897C-5834.64 -785.908 -5834.73 -785.914 -5834.81 -785.914C-5835.31 -785.914 -5835.69 -785.8 -5835.96 -785.574C-5836.23 -785.358 -5836.37 -785.018 -5836.37 -784.554V-784.248H-5834.31V-782.259H-5836.37V-775H-5838.6ZM-5828.64 -774.796C-5829.59 -774.796 -5830.43 -775.011 -5831.14 -775.442C-5831.86 -775.872 -5832.41 -776.456 -5832.81 -777.193C-5833.2 -777.929 -5833.4 -778.745 -5833.4 -779.641C-5833.4 -780.57 -5833.2 -781.392 -5832.81 -782.106C-5832.4 -782.831 -5831.85 -783.403 -5831.16 -783.823C-5830.46 -784.242 -5829.67 -784.452 -5828.81 -784.452C-5828.09 -784.452 -5827.45 -784.333 -5826.91 -784.095C-5826.35 -783.857 -5825.88 -783.528 -5825.5 -783.109C-5825.11 -782.689 -5824.82 -782.208 -5824.61 -781.664C-5824.41 -781.131 -5824.31 -780.553 -5824.31 -779.93C-5824.31 -779.771 -5824.32 -779.607 -5824.34 -779.437C-5824.35 -779.267 -5824.38 -779.119 -5824.43 -778.995H-5831.57V-780.695H-5825.68L-5826.74 -779.896C-5826.64 -780.417 -5826.66 -780.882 -5826.82 -781.29C-5826.97 -781.698 -5827.22 -782.021 -5827.57 -782.259C-5827.91 -782.497 -5828.33 -782.616 -5828.81 -782.616C-5829.28 -782.616 -5829.69 -782.497 -5830.05 -782.259C-5830.42 -782.032 -5830.69 -781.692 -5830.89 -781.239C-5831.07 -780.797 -5831.14 -780.258 -5831.09 -779.624C-5831.14 -779.057 -5831.06 -778.553 -5830.87 -778.111C-5830.67 -777.68 -5830.37 -777.346 -5829.99 -777.108C-5829.59 -776.87 -5829.14 -776.751 -5828.63 -776.751C-5828.12 -776.751 -5827.68 -776.858 -5827.33 -777.074C-5826.97 -777.289 -5826.69 -777.578 -5826.48 -777.941L-5824.68 -777.057C-5824.86 -776.615 -5825.15 -776.224 -5825.53 -775.884C-5825.92 -775.544 -5826.38 -775.277 -5826.91 -775.085C-5827.43 -774.892 -5828.01 -774.796 -5828.64 -774.796ZM-5818.23 -774.796C-5819.19 -774.796 -5820.02 -775.011 -5820.73 -775.442C-5821.45 -775.872 -5822 -776.456 -5822.4 -777.193C-5822.8 -777.929 -5822.99 -778.745 -5822.99 -779.641C-5822.99 -780.57 -5822.8 -781.392 -5822.4 -782.106C-5821.99 -782.831 -5821.44 -783.403 -5820.75 -783.823C-5820.05 -784.242 -5819.26 -784.452 -5818.4 -784.452C-5817.68 -784.452 -5817.04 -784.333 -5816.5 -784.095C-5815.94 -783.857 -5815.47 -783.528 -5815.09 -783.109C-5814.7 -782.689 -5814.41 -782.208 -5814.2 -781.664C-5814 -781.131 -5813.9 -780.553 -5813.9 -779.93C-5813.9 -779.771 -5813.91 -779.607 -5813.93 -779.437C-5813.94 -779.267 -5813.97 -779.119 -5814.02 -778.995H-5821.16V-780.695H-5815.28L-5816.33 -779.896C-5816.23 -780.417 -5816.26 -780.882 -5816.41 -781.29C-5816.56 -781.698 -5816.81 -782.021 -5817.16 -782.259C-5817.5 -782.497 -5817.92 -782.616 -5818.4 -782.616C-5818.87 -782.616 -5819.28 -782.497 -5819.64 -782.259C-5820.01 -782.032 -5820.28 -781.692 -5820.48 -781.239C-5820.66 -780.797 -5820.73 -780.258 -5820.68 -779.624C-5820.73 -779.057 -5820.65 -778.553 -5820.46 -778.111C-5820.26 -777.68 -5819.96 -777.346 -5819.58 -777.108C-5819.18 -776.87 -5818.73 -776.751 -5818.22 -776.751C-5817.71 -776.751 -5817.28 -776.858 -5816.92 -777.074C-5816.56 -777.289 -5816.28 -777.578 -5816.07 -777.941L-5814.27 -777.057C-5814.45 -776.615 -5814.74 -776.224 -5815.12 -775.884C-5815.51 -775.544 -5815.97 -775.277 -5816.5 -775.085C-5817.02 -774.892 -5817.6 -774.796 -5818.23 -774.796ZM-5807.91 -774.796C-5808.8 -774.796 -5809.6 -775.005 -5810.31 -775.425C-5811.01 -775.855 -5811.56 -776.439 -5811.97 -777.176C-5812.38 -777.912 -5812.58 -778.728 -5812.58 -779.624C-5812.58 -780.53 -5812.38 -781.346 -5811.97 -782.072C-5811.56 -782.797 -5811.01 -783.375 -5810.31 -783.806C-5809.59 -784.236 -5808.8 -784.452 -5807.93 -784.452C-5807.22 -784.452 -5806.6 -784.31 -5806.06 -784.027C-5805.5 -783.755 -5805.06 -783.369 -5804.75 -782.871L-5805.09 -782.412V-787.869H-5802.86V-775H-5804.97V-776.785L-5804.73 -776.343C-5805.05 -775.844 -5805.49 -775.459 -5806.06 -775.187C-5806.62 -774.926 -5807.24 -774.796 -5807.91 -774.796ZM-5807.67 -776.836C-5807.16 -776.836 -5806.71 -776.955 -5806.33 -777.193C-5805.94 -777.431 -5805.64 -777.759 -5805.43 -778.179C-5805.2 -778.598 -5805.09 -779.08 -5805.09 -779.624C-5805.09 -780.156 -5805.2 -780.632 -5805.43 -781.052C-5805.64 -781.482 -5805.94 -781.817 -5806.33 -782.055C-5806.71 -782.293 -5807.16 -782.412 -5807.67 -782.412C-5808.17 -782.412 -5808.62 -782.287 -5809.01 -782.038C-5809.41 -781.8 -5809.72 -781.471 -5809.95 -781.052C-5810.16 -780.644 -5810.27 -780.168 -5810.27 -779.624C-5810.27 -779.08 -5810.16 -778.598 -5809.95 -778.179C-5809.72 -777.759 -5809.41 -777.431 -5809.01 -777.193C-5808.62 -776.955 -5808.17 -776.836 -5807.67 -776.836ZM-5795.74 -774.796C-5796.41 -774.796 -5797.03 -774.926 -5797.59 -775.187C-5798.15 -775.459 -5798.59 -775.844 -5798.92 -776.343L-5798.7 -776.785V-775H-5800.79V-787.869H-5798.56V-782.412L-5798.9 -782.871C-5798.58 -783.369 -5798.15 -783.755 -5797.61 -784.027C-5797.07 -784.31 -5796.44 -784.452 -5795.72 -784.452C-5794.85 -784.452 -5794.06 -784.236 -5793.36 -783.806C-5792.66 -783.375 -5792.1 -782.797 -5791.69 -782.072C-5791.27 -781.346 -5791.06 -780.53 -5791.06 -779.624C-5791.06 -778.728 -5791.27 -777.912 -5791.68 -777.176C-5792.08 -776.439 -5792.64 -775.855 -5793.34 -775.425C-5794.04 -775.005 -5794.84 -774.796 -5795.74 -774.796ZM-5795.99 -776.836C-5795.48 -776.836 -5795.03 -776.955 -5794.63 -777.193C-5794.24 -777.431 -5793.93 -777.759 -5793.72 -778.179C-5793.49 -778.598 -5793.38 -779.08 -5793.38 -779.624C-5793.38 -780.168 -5793.49 -780.644 -5793.72 -781.052C-5793.93 -781.471 -5794.24 -781.8 -5794.63 -782.038C-5795.03 -782.287 -5795.48 -782.412 -5795.99 -782.412C-5796.48 -782.412 -5796.92 -782.293 -5797.32 -782.055C-5797.71 -781.817 -5798.01 -781.482 -5798.24 -781.052C-5798.45 -780.632 -5798.56 -780.156 -5798.56 -779.624C-5798.56 -779.08 -5798.45 -778.598 -5798.24 -778.179C-5798.01 -777.759 -5797.71 -777.431 -5797.32 -777.193C-5796.92 -776.955 -5796.48 -776.836 -5795.99 -776.836ZM-5786.56 -774.796C-5787.21 -774.796 -5787.77 -774.903 -5788.24 -775.119C-5788.72 -775.334 -5789.09 -775.64 -5789.35 -776.037C-5789.61 -776.445 -5789.74 -776.915 -5789.74 -777.448C-5789.74 -777.958 -5789.63 -778.411 -5789.4 -778.808C-5789.17 -779.216 -5788.82 -779.556 -5788.35 -779.828C-5787.87 -780.1 -5787.27 -780.292 -5786.54 -780.406L-5783.52 -780.899V-779.199L-5786.12 -778.757C-5786.56 -778.677 -5786.89 -778.536 -5787.11 -778.332C-5787.32 -778.128 -5787.43 -777.861 -5787.43 -777.533C-5787.43 -777.215 -5787.31 -776.96 -5787.07 -776.768C-5786.82 -776.586 -5786.52 -776.496 -5786.15 -776.496C-5785.69 -776.496 -5785.28 -776.592 -5784.93 -776.785C-5784.57 -776.989 -5784.29 -777.266 -5784.1 -777.618C-5783.89 -777.969 -5783.79 -778.354 -5783.79 -778.774V-781.154C-5783.79 -781.55 -5783.95 -781.879 -5784.27 -782.14C-5784.57 -782.412 -5784.98 -782.548 -5785.49 -782.548C-5785.97 -782.548 -5786.39 -782.417 -5786.77 -782.157C-5787.13 -781.907 -5787.39 -781.573 -5787.56 -781.154L-5789.38 -782.038C-5789.2 -782.525 -5788.92 -782.944 -5788.53 -783.296C-5788.14 -783.658 -5787.67 -783.942 -5787.14 -784.146C-5786.61 -784.35 -5786.03 -784.452 -5785.41 -784.452C-5784.65 -784.452 -5783.98 -784.31 -5783.4 -784.027C-5782.82 -783.755 -5782.37 -783.369 -5782.06 -782.871C-5781.73 -782.383 -5781.56 -781.811 -5781.56 -781.154V-775H-5783.67V-776.581L-5783.2 -776.615C-5783.43 -776.218 -5783.72 -775.884 -5784.05 -775.612C-5784.37 -775.351 -5784.75 -775.147 -5785.17 -775C-5785.59 -774.864 -5786.05 -774.796 -5786.56 -774.796ZM-5775.05 -774.796C-5775.97 -774.796 -5776.8 -775.005 -5777.53 -775.425C-5778.26 -775.855 -5778.83 -776.433 -5779.25 -777.159C-5779.67 -777.895 -5779.88 -778.723 -5779.88 -779.641C-5779.88 -780.559 -5779.67 -781.38 -5779.25 -782.106C-5778.83 -782.831 -5778.26 -783.403 -5777.53 -783.823C-5776.8 -784.242 -5775.97 -784.452 -5775.05 -784.452C-5774.39 -784.452 -5773.78 -784.333 -5773.21 -784.095C-5772.65 -783.868 -5772.16 -783.551 -5771.75 -783.143C-5771.33 -782.746 -5771.03 -782.27 -5770.85 -781.715L-5772.81 -780.865C-5772.98 -781.329 -5773.27 -781.703 -5773.67 -781.987C-5774.07 -782.27 -5774.53 -782.412 -5775.05 -782.412C-5775.54 -782.412 -5775.97 -782.293 -5776.36 -782.055C-5776.73 -781.817 -5777.03 -781.488 -5777.24 -781.069C-5777.46 -780.649 -5777.57 -780.168 -5777.57 -779.624C-5777.57 -779.08 -5777.46 -778.598 -5777.24 -778.179C-5777.03 -777.759 -5776.73 -777.431 -5776.36 -777.193C-5775.97 -776.955 -5775.54 -776.836 -5775.05 -776.836C-5774.52 -776.836 -5774.05 -776.977 -5773.66 -777.261C-5773.26 -777.544 -5772.98 -777.924 -5772.81 -778.4L-5770.85 -777.516C-5771.03 -776.994 -5771.33 -776.524 -5771.74 -776.105C-5772.14 -775.697 -5772.63 -775.374 -5773.2 -775.136C-5773.76 -774.909 -5774.38 -774.796 -5775.05 -774.796ZM-5769.16 -775V-787.869H-5766.93V-779.437L-5767.79 -779.692L-5763.43 -784.248H-5760.66L-5764.08 -780.525L-5760.59 -775H-5763.14L-5766.17 -779.794L-5764.84 -780.066L-5767.63 -777.074L-5766.93 -778.434V-775H-5769.16Z" stroke="black" stroke-width="2" stroke-linecap="round" stroke-linejoin="round"/>
<path d="M-6067.57 -782.861C-6068.07 -783.48 -6068.59 -784.117 -6069.32 -784.519C-6070.05 -784.922 -6071.05 -785.03 -6071.7 -784.573C-6072.11 -784.286 -6072.31 -783.833 -6072.5 -783.4C-6072.7 -782.948 -6073.21 -782.527 -6073.09 -782.044C-6072.87 -781.116 -6071.56 -780.638 -6070.58 -780.232C-6069.6 -779.827 -6068.36 -779.796 -6067.57 -780.409C-6066.79 -781.022 -6067.02 -782.173 -6067.57 -782.861Z" stroke="black" stroke-width="2" stroke-linecap="round" stroke-linejoin="round"/>
<path d="M-6071.75 -783.245C-6072.76 -784.118 -6073.81 -786.252 -6073.72 -788.854C-6073.64 -791.56 -6072.4 -794.748 -6072.71 -796.47C-6072.94 -796.565 -6073.18 -796.487 -6073.36 -796.219C-6073.08 -794.504 -6074.37 -791.277 -6074.46 -788.639C-6074.55 -785.704 -6073.4 -783.389 -6072.25 -782.405C-6072.13 -782.714 -6072.01 -783.021 -6071.76 -783.245H-6071.75Z" stroke="black" stroke-width="2" stroke-linecap="round" stroke-linejoin="round"/>
<path d="M-6044.55 -783.277C-6044.08 -783.829 -6043.58 -784.396 -6042.96 -784.686C-6042.33 -784.975 -6041.52 -784.916 -6041.07 -784.335C-6040.79 -783.97 -6040.69 -783.47 -6040.6 -782.992C-6040.51 -782.493 -6040.16 -781.973 -6040.32 -781.496C-6040.62 -780.578 -6041.71 -780.31 -6042.54 -780.06C-6043.36 -779.811 -6044.35 -779.99 -6044.88 -780.755C-6045.41 -781.518 -6045.08 -782.666 -6044.55 -783.278L-6044.55 -783.277Z" stroke="black" stroke-width="2" stroke-linecap="round" stroke-linejoin="round"/>
<path d="M-6040.9 -783.351C-6039.62 -783.973 -6037.63 -788.741 -6037.23 -791.042C-6036.82 -793.434 -6037.6 -796.42 -6036.92 -797.889C-6036.65 -797.939 -6036.35 -798.144 -6036.2 -797.883C-6036.83 -796.414 -6036.05 -793.08 -6036.46 -790.747C-6036.91 -788.153 -6039.16 -783.106 -6040.62 -782.406C-6040.7 -782.694 -6040.66 -783.118 -6040.9 -783.352V-783.351Z" stroke="black" stroke-width="2" stroke-linecap="round" stroke-linejoin="round"/>
<path d="M-6051.36 -776.195H-6052.38V-756.183H-6051.36V-776.195Z" stroke="black" stroke-width="2" stroke-linecap="round" stroke-linejoin="round"/>
<path d="M-6060.75 -776.195H-6061.77V-756.183H-6060.75V-776.195Z" stroke="black" stroke-width="2" stroke-linecap="round" stroke-linejoin="round"/>
<path d="M-6052.33 -757.085C-6052.42 -756.699 -6052.41 -756.67 -6052.05 -756.583C-6051.69 -756.497 -6051.66 -756.511 -6051.4 -756.783C-6051.3 -756.892 -6051.46 -757.082 -6051.32 -757.116C-6051.07 -757.174 -6050.39 -756.917 -6050.21 -756.73C-6049.85 -756.358 -6049.28 -756.385 -6048.77 -756.406C-6048.27 -756.427 -6047.67 -756.372 -6047.4 -755.926C-6047.15 -755.502 -6047.34 -754.906 -6047.72 -754.59C-6048.09 -754.274 -6048.59 -754.174 -6049.07 -754.113C-6050.34 -753.953 -6051.63 -753.997 -6052.91 -754.042C-6053.05 -754.046 -6053.21 -754.058 -6053.31 -754.161C-6053.42 -754.263 -6053.44 -754.425 -6053.45 -754.573C-6053.49 -755.105 -6053.53 -755.637 -6053.54 -756.168C-6053.55 -756.424 -6053.55 -756.706 -6053.39 -756.897C-6053.23 -757.089 -6052.26 -757.413 -6052.34 -757.083L-6052.33 -757.085Z" stroke="black" stroke-width="2" stroke-linecap="round" stroke-linejoin="round"/>
<path d="M-6060.78 -757.085C-6060.69 -756.699 -6060.7 -756.67 -6061.06 -756.583C-6061.42 -756.495 -6061.45 -756.511 -6061.71 -756.783C-6061.82 -756.892 -6061.65 -757.082 -6061.8 -757.116C-6062.05 -757.174 -6062.72 -756.917 -6062.91 -756.73C-6063.26 -756.358 -6063.84 -756.385 -6064.34 -756.406C-6064.85 -756.427 -6065.44 -756.372 -6065.71 -755.926C-6065.97 -755.502 -6065.77 -754.906 -6065.4 -754.59C-6065.02 -754.274 -6064.52 -754.174 -6064.04 -754.113C-6062.77 -753.953 -6061.49 -753.997 -6060.21 -754.042C-6060.06 -754.046 -6059.91 -754.058 -6059.8 -754.161C-6059.7 -754.263 -6059.68 -754.425 -6059.67 -754.574C-6059.62 -755.105 -6059.59 -755.637 -6059.57 -756.168C-6059.56 -756.424 -6059.56 -756.706 -6059.73 -756.898C-6059.89 -757.088 -6060.86 -757.413 -6060.78 -757.083L-6060.78 -757.085Z" stroke="black" stroke-width="2" stroke-linecap="round" stroke-linejoin="round"/>
<path d="M-6056.56 -771.303C-6049.33 -771.303 -6043.46 -777.089 -6043.46 -784.227C-6043.46 -791.365 -6049.33 -797.151 -6056.56 -797.151C-6063.79 -797.151 -6069.65 -791.365 -6069.65 -784.227C-6069.65 -777.089 -6063.79 -771.303 -6056.56 -771.303Z" stroke="black" stroke-width="2" stroke-linecap="round" stroke-linejoin="round"/>
<path d="M-6061.25 -782.743C-6059.49 -782.743 -6058.06 -784.189 -6058.06 -785.972C-6058.06 -787.755 -6059.49 -789.2 -6061.25 -789.2C-6063.02 -789.2 -6064.45 -787.755 -6064.45 -785.972C-6064.45 -784.189 -6063.02 -782.743 -6061.25 -782.743Z" stroke="black" stroke-width="2" stroke-linecap="round" stroke-linejoin="round"/>
<path d="M-6061.25 -785.972C-6060.13 -785.972 -6059.22 -786.685 -6059.22 -787.565C-6059.22 -788.445 -6060.13 -789.159 -6061.25 -789.159C-6062.37 -789.159 -6063.28 -788.445 -6063.28 -787.565C-6063.28 -786.685 -6062.37 -785.972 -6061.25 -785.972Z" stroke="black" stroke-width="2" stroke-linecap="round" stroke-linejoin="round"/>
<path d="M-6051.87 -782.743C-6050.11 -782.743 -6048.68 -784.189 -6048.68 -785.972C-6048.68 -787.755 -6050.11 -789.2 -6051.87 -789.2C-6053.63 -789.2 -6055.06 -787.755 -6055.06 -785.972C-6055.06 -784.189 -6053.63 -782.743 -6051.87 -782.743Z" stroke="black" stroke-width="2" stroke-linecap="round" stroke-linejoin="round"/>
<path d="M-6051.87 -785.945C-6050.75 -785.945 -6049.84 -786.67 -6049.84 -787.565C-6049.84 -788.46 -6050.75 -789.185 -6051.87 -789.185C-6052.99 -789.185 -6053.9 -788.46 -6053.9 -787.565C-6053.9 -786.67 -6052.99 -785.945 -6051.87 -785.945Z" stroke="black" stroke-width="2" stroke-linecap="round" stroke-linejoin="round"/>
<path d="M-6056.56 -777.011C-6055.68 -777.011 -6054.98 -777.737 -6054.98 -778.631C-6054.98 -779.526 -6055.68 -780.252 -6056.56 -780.252C-6057.43 -780.252 -6058.14 -779.526 -6058.14 -778.631C-6058.14 -777.737 -6057.43 -777.011 -6056.56 -777.011Z" stroke="black" stroke-width="2" stroke-linecap="round" stroke-linejoin="round"/>
<path d="M-6044.43 -792.461C-6043.99 -792.301 -6043.8 -791.659 -6044.09 -791.278C-6044.37 -790.896 -6045.02 -790.911 -6045.29 -791.304C-6044.94 -791.105 -6044.92 -790.548 -6045.19 -790.254C-6045.46 -789.96 -6045.92 -789.916 -6046.29 -790.055C-6046.66 -790.195 -6046.95 -790.489 -6047.21 -790.799C-6046.91 -791.068 -6047.22 -791.61 -6047.61 -791.693C-6048 -791.776 -6048.39 -791.606 -6048.78 -791.567C-6049.17 -791.528 -6049.67 -791.729 -6049.69 -792.136C-6049.24 -792.43 -6049.41 -793.293 -6049.94 -793.38C-6049.68 -792.93 -6050.26 -792.295 -6050.72 -792.532C-6050.6 -792.907 -6050.57 -793.465 -6050.95 -793.541C-6051.26 -793.603 -6051.47 -793.247 -6051.61 -792.957C-6051.75 -792.667 -6052.05 -792.347 -6052.32 -792.51C-6052.55 -792.81 -6052.45 -793.245 -6052.37 -793.622C-6052.3 -793.999 -6052.32 -794.487 -6052.66 -794.645C-6052.88 -794.748 -6053.14 -794.659 -6053.38 -794.632C-6053.62 -794.605 -6053.93 -794.706 -6053.95 -794.954C-6053.97 -795.165 -6053.76 -795.346 -6053.78 -795.557C-6053.81 -795.828 -6054.16 -795.891 -6054.37 -796.059C-6054.77 -796.383 -6054.55 -797.109 -6054.1 -797.354C-6053.65 -797.599 -6053.11 -797.516 -6052.53 -797.507C-6052 -797.703 -6051.52 -798.071 -6051.19 -798.548C-6051.17 -797.795 -6050.42 -797.152 -6049.7 -797.268C-6049.51 -797.299 -6049.32 -797.375 -6049.12 -797.382C-6048.93 -797.39 -6048.71 -797.302 -6048.64 -797.113C-6048.6 -796.983 -6048.63 -796.825 -6048.56 -796.711C-6048.45 -796.551 -6048.19 -796.601 -6048.06 -796.744C-6047.92 -796.886 -6047.87 -797.084 -6047.77 -797.25C-6047.47 -797.725 -6046.75 -797.844 -6046.33 -797.486C-6045.9 -797.128 -6045.88 -796.381 -6046.27 -795.992C-6046.12 -795.385 -6045.33 -795.06 -6044.81 -795.386C-6044.84 -794.975 -6044.87 -794.553 -6044.76 -794.155C-6044.65 -793.757 -6044.37 -793.383 -6043.98 -793.288C-6043.84 -792.917 -6044.12 -792.446 -6044.43 -792.463L-6044.43 -792.461Z" stroke="black" stroke-width="2" stroke-linecap="round" stroke-linejoin="round"/>
<path d="M-6040.92 -800.801C-6038.85 -801.972 -6036.79 -803.144 -6034.73 -804.314C-6034.06 -804.697 -6033.31 -805.094 -6032.54 -804.979C-6031.54 -804.831 -6030.89 -803.894 -6030.36 -803.042C-6029.94 -802.357 -6029.5 -801.549 -6029.77 -800.793C-6030.04 -800.058 -6030.87 -799.702 -6031.63 -799.476C-6033.94 -798.787 -6036.36 -798.546 -6038.77 -798.457C-6039.33 -798.437 -6039.9 -798.426 -6040.42 -798.618C-6040.94 -798.809 -6041.4 -799.252 -6041.45 -799.797C-6041.49 -800.342 -6040.98 -800.914 -6040.92 -800.799L-6040.92 -800.801Z" stroke="black" stroke-width="2" stroke-linecap="round" stroke-linejoin="round"/>
<path d="M-6042.36 -799.709C-6042.31 -799.43 -6042.2 -799.161 -6042.03 -798.927C-6041.91 -798.75 -6041.75 -798.585 -6041.55 -798.517C-6041.34 -798.448 -6041.08 -798.505 -6040.97 -798.688C-6040.84 -798.891 -6040.93 -799.154 -6041.03 -799.372C-6041.12 -799.592 -6041.23 -799.807 -6041.35 -800.02C-6041.42 -800.156 -6041.5 -800.294 -6041.63 -800.382C-6041.85 -800.53 -6042.19 -800.471 -6042.34 -800.256C-6042.5 -800.04 -6042.45 -799.708 -6042.36 -799.709Z" stroke="black" stroke-width="2" stroke-linecap="round" stroke-linejoin="round"/>
<path d="M-6042.04 -799.564C-6042.19 -799.534 -6042.35 -799.501 -6042.47 -799.409C-6042.59 -799.317 -6042.67 -799.145 -6042.6 -799.008C-6042.52 -798.845 -6042.29 -798.818 -6042.11 -798.845C-6041.94 -798.872 -6041.76 -798.931 -6041.64 -799.062C-6041.53 -799.193 -6041.5 -799.405 -6041.61 -799.539C-6041.72 -799.672 -6041.99 -799.647 -6042.04 -799.564Z" stroke="black" stroke-width="2" stroke-linecap="round" stroke-linejoin="round"/>
<path d="M-6045.2 -799.663L-6045.73 -798.809C-6045.53 -798.622 -6045.27 -798.49 -6044.99 -798.48C-6044.72 -798.469 -6044.43 -798.591 -6044.28 -798.818C-6044.13 -799.045 -6044.15 -799.377 -6044.34 -799.568C-6044.46 -799.682 -6044.63 -799.739 -6044.79 -799.754C-6045.09 -799.781 -6045.4 -799.671 -6045.57 -799.43C-6045.74 -799.189 -6045.73 -798.821 -6045.21 -799.662L-6045.2 -799.663Z" stroke="black" stroke-width="2" stroke-linecap="round" stroke-linejoin="round"/>
<path d="M-6042.95 -798.859C-6043.44 -798.615 -6043.78 -798.112 -6043.83 -797.573C-6043.54 -797.57 -6043.25 -797.724 -6043.1 -797.966C-6042.95 -798.208 -6042.93 -798.53 -6042.95 -798.859Z" stroke="black" stroke-width="2" stroke-linecap="round" stroke-linejoin="round"/>
<path d="M-6045 -796.943C-6045.17 -796.989 -6045.37 -796.86 -6045.42 -796.683C-6045.47 -796.506 -6045.37 -796.309 -6045.22 -796.214C-6045.06 -796.119 -6044.85 -796.119 -6044.68 -796.194C-6044.49 -796.283 -6044.34 -796.478 -6044.33 -796.692C-6044.32 -796.906 -6044.46 -797.124 -6044.67 -797.183C-6044.87 -797.243 -6045.12 -797.119 -6045 -796.943Z" stroke="black" stroke-width="2" stroke-linecap="round" stroke-linejoin="round"/>
<path d="M-6064.45 -771.609C-6064.84 -771.278 -6065.11 -770.809 -6065.19 -770.308C-6065.25 -769.968 -6065.17 -769.541 -6064.84 -769.426C-6064.59 -769.34 -6064.31 -769.492 -6064.16 -769.71C-6064.02 -769.928 -6063.99 -770.198 -6063.97 -770.458C-6063.93 -770.993 -6063.93 -771.532 -6063.98 -772.067C-6064.13 -771.836 -6064.29 -771.606 -6064.45 -771.611V-771.609Z" stroke="black" stroke-width="2" stroke-linecap="round" stroke-linejoin="round"/>
<path d="M-6054.51 -792.068C-6055 -791.916 -6055.43 -791.591 -6055.71 -791.163C-6055.9 -790.874 -6056 -790.449 -6055.75 -790.216C-6055.55 -790.039 -6055.23 -790.067 -6055.01 -790.211C-6054.8 -790.355 -6054.66 -790.59 -6054.53 -790.822C-6054.28 -791.297 -6054.07 -791.791 -6053.89 -792.301C-6054.13 -792.151 -6054.36 -791.999 -6054.51 -792.068H-6054.51Z" stroke="black" stroke-width="2" stroke-linecap="round" stroke-linejoin="round"/>
<path d="M-6046.51 -788.397C-6046.81 -787.984 -6046.96 -787.466 -6046.92 -786.959C-6046.9 -786.616 -6046.72 -786.218 -6046.37 -786.184C-6046.11 -786.159 -6045.87 -786.371 -6045.78 -786.616C-6045.69 -786.861 -6045.73 -787.131 -6045.77 -787.388C-6045.86 -787.917 -6045.99 -788.44 -6046.16 -788.949C-6046.25 -788.689 -6046.35 -788.429 -6046.51 -788.397H-6046.51Z" stroke="black" stroke-width="2" stroke-linecap="round" stroke-linejoin="round"/>
<path d="M-6047.85 -781.199C-6047.41 -780.868 -6047.12 -780.399 -6047.02 -779.898C-6046.96 -779.558 -6047.05 -779.13 -6047.41 -779.016C-6047.69 -778.93 -6048 -779.081 -6048.16 -779.3C-6048.32 -779.518 -6048.36 -779.788 -6048.38 -780.048C-6048.42 -780.583 -6048.42 -781.122 -6048.37 -781.656C-6048.2 -781.426 -6048.03 -781.196 -6047.85 -781.201L-6047.85 -781.199Z" stroke="black" stroke-width="2" stroke-linecap="round" stroke-linejoin="round"/>
<path d="M-6050.13 -772.093C-6050.23 -771.567 -6050.33 -771.042 -6050.43 -770.516C-6050.46 -770.379 -6050.49 -770.235 -6050.44 -770.106C-6050.36 -769.912 -6050.12 -769.806 -6049.92 -769.861C-6049.71 -769.916 -6049.56 -770.108 -6049.53 -770.313C-6049.44 -770.92 -6050.25 -771.434 -6050.13 -772.093Z" stroke="black" stroke-width="2" stroke-linecap="round" stroke-linejoin="round"/>
<path d="M-6060.1 -765.702C-6060.27 -765.438 -6060.44 -765.146 -6060.41 -764.835C-6060.39 -764.523 -6060.05 -764.226 -6059.76 -764.362C-6059.62 -764.431 -6059.53 -764.588 -6059.51 -764.744C-6059.49 -764.9 -6059.52 -765.059 -6059.55 -765.215C-6059.63 -765.659 -6059.71 -766.101 -6059.8 -766.545C-6059.92 -766.245 -6059.96 -765.914 -6060.09 -765.702H-6060.1Z" stroke="black" stroke-width="2" stroke-linecap="round" stroke-linejoin="round"/>
<path d="M-6073.8 -796.714C-6073.61 -796.304 -6073.06 -796.159 -6072.63 -796.303C-6072.2 -796.447 -6071.87 -796.806 -6071.63 -797.186C-6071.47 -797.436 -6071.33 -797.711 -6071.31 -798.006C-6071.29 -798.302 -6071.4 -798.622 -6071.66 -798.775C-6071.92 -798.928 -6072.31 -798.848 -6072.43 -798.575C-6072.5 -799.102 -6072.59 -799.653 -6072.9 -800.083C-6073.22 -800.514 -6073.85 -800.77 -6074.32 -800.501C-6074.6 -800.334 -6074.76 -800.015 -6074.85 -799.697C-6075.18 -798.466 -6074.55 -797.047 -6073.8 -796.714Z" stroke="black" stroke-width="2" stroke-linecap="round" stroke-linejoin="round"/>
<path d="M-6037.33 -798.009C-6037.58 -798.212 -6037.83 -798.423 -6037.99 -798.7C-6038.14 -798.976 -6038.19 -799.332 -6038.02 -799.602C-6037.86 -799.873 -6037.43 -799.984 -6037.19 -799.775C-6036.94 -799.555 -6037 -799.142 -6036.79 -798.878C-6036.58 -798.606 -6036.14 -798.587 -6035.86 -798.786C-6035.66 -798.928 -6035.47 -799.175 -6035.23 -799.121C-6035.01 -799.075 -6034.93 -798.793 -6035.01 -798.593C-6035.1 -798.392 -6035.3 -798.264 -6035.49 -798.161C-6035.87 -797.96 -6036.28 -797.804 -6036.71 -797.834C-6037.13 -797.864 -6037.56 -798.12 -6037.34 -798.008L-6037.33 -798.009Z" stroke="black" stroke-width="2" stroke-linecap="round" stroke-linejoin="round"/>
<path d="M-6007 -791V-805.9H-6002.12C-6000.61 -805.9 -5999.3 -805.593 -5998.18 -804.98C-5997.06 -804.366 -5996.19 -803.5 -5995.58 -802.38C-5994.97 -801.273 -5994.66 -799.966 -5994.66 -798.46C-5994.66 -796.966 -5994.97 -795.66 -5995.58 -794.54C-5996.19 -793.42 -5997.06 -792.546 -5998.18 -791.92C-5999.3 -791.306 -6000.61 -791 -6002.12 -791H-6007ZM-6005.04 -792.8H-6002.1C-6000.99 -792.8 -6000.04 -793.033 -5999.24 -793.5C-5998.43 -793.966 -5997.8 -794.62 -5997.36 -795.46C-5996.92 -796.313 -5996.7 -797.313 -5996.7 -798.46C-5996.7 -799.62 -5996.93 -800.62 -5997.38 -801.46C-5997.82 -802.3 -5998.45 -802.946 -5999.26 -803.4C-6000.06 -803.866 -6001.01 -804.1 -6002.1 -804.1H-6005.04V-792.8ZM-5992.4 -791V-801.78H-5990.54V-791H-5992.4ZM-5992.4 -803.5V-805.9H-5990.54V-803.5H-5992.4ZM-5983.79 -790.76C-5984.87 -790.76 -5985.81 -791.026 -5986.61 -791.56C-5987.41 -792.093 -5987.98 -792.813 -5988.31 -793.72L-5986.83 -794.44C-5986.52 -793.8 -5986.1 -793.293 -5985.57 -792.92C-5985.04 -792.546 -5984.44 -792.36 -5983.79 -792.36C-5983.2 -792.36 -5982.72 -792.5 -5982.33 -792.78C-5981.94 -793.06 -5981.75 -793.426 -5981.75 -793.88C-5981.75 -794.2 -5981.84 -794.453 -5982.03 -794.64C-5982.2 -794.84 -5982.42 -794.993 -5982.67 -795.1C-5982.92 -795.22 -5983.16 -795.306 -5983.37 -795.36L-5984.99 -795.82C-5985.96 -796.1 -5986.68 -796.5 -5987.13 -797.02C-5987.57 -797.54 -5987.79 -798.146 -5987.79 -798.84C-5987.79 -799.48 -5987.63 -800.033 -5987.31 -800.5C-5986.98 -800.98 -5986.53 -801.353 -5985.97 -801.62C-5985.4 -801.886 -5984.76 -802.02 -5984.05 -802.02C-5983.1 -802.02 -5982.26 -801.78 -5981.51 -801.3C-5980.75 -800.82 -5980.21 -800.146 -5979.89 -799.28L-5981.41 -798.58C-5981.65 -799.14 -5982.01 -799.58 -5982.49 -799.9C-5982.97 -800.233 -5983.51 -800.4 -5984.11 -800.4C-5984.66 -800.4 -5985.09 -800.26 -5985.41 -799.98C-5985.73 -799.713 -5985.89 -799.373 -5985.89 -798.96C-5985.89 -798.653 -5985.81 -798.4 -5985.65 -798.2C-5985.49 -798.013 -5985.3 -797.866 -5985.07 -797.76C-5984.84 -797.666 -5984.62 -797.586 -5984.41 -797.52L-5982.65 -797C-5981.77 -796.746 -5981.09 -796.353 -5980.61 -795.82C-5980.12 -795.286 -5979.87 -794.646 -5979.87 -793.9C-5979.87 -793.3 -5980.04 -792.76 -5980.37 -792.28C-5980.7 -791.8 -5981.16 -791.426 -5981.75 -791.16C-5982.34 -790.893 -5983.02 -790.76 -5983.79 -790.76ZM-5977.44 -791V-806.14H-5975.58V-799.68L-5975.92 -799.86C-5975.65 -800.54 -5975.22 -801.066 -5974.64 -801.44C-5974.04 -801.826 -5973.34 -802.02 -5972.54 -802.02C-5971.76 -802.02 -5971.08 -801.846 -5970.48 -801.5C-5969.86 -801.153 -5969.38 -800.673 -5969.04 -800.06C-5968.68 -799.446 -5968.5 -798.753 -5968.5 -797.98V-791H-5970.38V-797.38C-5970.38 -797.98 -5970.49 -798.486 -5970.72 -798.9C-5970.93 -799.313 -5971.23 -799.633 -5971.62 -799.86C-5972 -800.1 -5972.45 -800.22 -5972.96 -800.22C-5973.45 -800.22 -5973.9 -800.1 -5974.3 -799.86C-5974.7 -799.633 -5975.01 -799.306 -5975.24 -798.88C-5975.46 -798.466 -5975.58 -797.966 -5975.58 -797.38V-791H-5977.44ZM-5960.87 -790.76C-5961.91 -790.76 -5962.84 -791.006 -5963.65 -791.5C-5964.47 -791.993 -5965.11 -792.666 -5965.57 -793.52C-5966.04 -794.386 -5966.27 -795.353 -5966.27 -796.42C-5966.27 -797.5 -5966.05 -798.46 -5965.59 -799.3C-5965.13 -800.14 -5964.5 -800.8 -5963.71 -801.28C-5962.91 -801.773 -5962.02 -802.02 -5961.03 -802.02C-5960.23 -802.02 -5959.53 -801.873 -5958.91 -801.58C-5958.29 -801.3 -5957.76 -800.913 -5957.33 -800.42C-5956.89 -799.94 -5956.56 -799.386 -5956.33 -798.76C-5956.09 -798.146 -5955.97 -797.506 -5955.97 -796.84C-5955.97 -796.693 -5955.99 -796.526 -5956.01 -796.34C-5956.03 -796.166 -5956.05 -796 -5956.07 -795.84H-5964.91V-797.44H-5957.15L-5958.03 -796.72C-5957.91 -797.413 -5957.98 -798.033 -5958.23 -798.58C-5958.49 -799.126 -5958.86 -799.56 -5959.35 -799.88C-5959.85 -800.2 -5960.41 -800.36 -5961.03 -800.36C-5961.66 -800.36 -5962.23 -800.2 -5962.75 -799.88C-5963.27 -799.56 -5963.68 -799.1 -5963.97 -798.5C-5964.25 -797.913 -5964.37 -797.213 -5964.31 -796.4C-5964.37 -795.613 -5964.25 -794.92 -5963.95 -794.32C-5963.65 -793.733 -5963.22 -793.273 -5962.67 -792.94C-5962.11 -792.62 -5961.51 -792.46 -5960.85 -792.46C-5960.13 -792.46 -5959.53 -792.626 -5959.03 -792.96C-5958.54 -793.293 -5958.14 -793.72 -5957.83 -794.24L-5956.27 -793.44C-5956.49 -792.946 -5956.82 -792.493 -5957.27 -792.08C-5957.71 -791.68 -5958.24 -791.36 -5958.85 -791.12C-5959.45 -790.88 -5960.13 -790.76 -5960.87 -790.76ZM-5949.69 -790.76C-5950.77 -790.76 -5951.71 -791.026 -5952.51 -791.56C-5953.31 -792.093 -5953.88 -792.813 -5954.21 -793.72L-5952.73 -794.44C-5952.42 -793.8 -5952 -793.293 -5951.47 -792.92C-5950.94 -792.546 -5950.34 -792.36 -5949.69 -792.36C-5949.1 -792.36 -5948.62 -792.5 -5948.23 -792.78C-5947.84 -793.06 -5947.65 -793.426 -5947.65 -793.88C-5947.65 -794.2 -5947.74 -794.453 -5947.93 -794.64C-5948.1 -794.84 -5948.32 -794.993 -5948.57 -795.1C-5948.82 -795.22 -5949.06 -795.306 -5949.27 -795.36L-5950.89 -795.82C-5951.86 -796.1 -5952.58 -796.5 -5953.03 -797.02C-5953.47 -797.54 -5953.69 -798.146 -5953.69 -798.84C-5953.69 -799.48 -5953.53 -800.033 -5953.21 -800.5C-5952.88 -800.98 -5952.43 -801.353 -5951.87 -801.62C-5951.3 -801.886 -5950.66 -802.02 -5949.95 -802.02C-5949 -802.02 -5948.16 -801.78 -5947.41 -801.3C-5946.65 -800.82 -5946.11 -800.146 -5945.79 -799.28L-5947.31 -798.58C-5947.55 -799.14 -5947.91 -799.58 -5948.39 -799.9C-5948.87 -800.233 -5949.41 -800.4 -5950.01 -800.4C-5950.56 -800.4 -5950.99 -800.26 -5951.31 -799.98C-5951.63 -799.713 -5951.79 -799.373 -5951.79 -798.96C-5951.79 -798.653 -5951.71 -798.4 -5951.55 -798.2C-5951.39 -798.013 -5951.2 -797.866 -5950.97 -797.76C-5950.74 -797.666 -5950.52 -797.586 -5950.31 -797.52L-5948.55 -797C-5947.67 -796.746 -5946.99 -796.353 -5946.51 -795.82C-5946.02 -795.286 -5945.77 -794.646 -5945.77 -793.9C-5945.77 -793.3 -5945.94 -792.76 -5946.27 -792.28C-5946.6 -791.8 -5947.06 -791.426 -5947.65 -791.16C-5948.24 -790.893 -5948.92 -790.76 -5949.69 -790.76Z" stroke="black" stroke-width="2" stroke-linecap="round" stroke-linejoin="round"/>
<path d="M-6001.85 -763.808C-6002.69 -763.808 -6003.47 -763.957 -6004.18 -764.256C-6004.89 -764.565 -6005.5 -764.997 -6006.04 -765.552C-6006.56 -766.106 -6006.96 -766.757 -6007.25 -767.504C-6007.54 -768.25 -6007.68 -769.066 -6007.68 -769.952C-6007.68 -770.848 -6007.54 -771.669 -6007.25 -772.416C-6006.96 -773.162 -6006.56 -773.813 -6006.04 -774.368C-6005.51 -774.922 -6004.9 -775.349 -6004.18 -775.648C-6003.47 -775.957 -6002.69 -776.112 -6001.85 -776.112C-6001.02 -776.112 -6000.29 -775.968 -5999.64 -775.68C-5998.98 -775.392 -5998.42 -775.018 -5997.97 -774.56C-5997.51 -774.101 -5997.19 -773.61 -5997 -773.088L-5998.44 -772.432C-5998.71 -773.093 -5999.15 -773.626 -5999.73 -774.032C-6000.32 -774.448 -6001.02 -774.656 -6001.85 -774.656C-6002.68 -774.656 -6003.42 -774.458 -6004.07 -774.064C-6004.71 -773.669 -6005.21 -773.12 -6005.57 -772.416C-6005.94 -771.712 -6006.12 -770.89 -6006.12 -769.952C-6006.12 -769.024 -6005.94 -768.208 -6005.57 -767.504C-6005.21 -766.8 -6004.71 -766.25 -6004.07 -765.856C-6003.42 -765.461 -6002.68 -765.264 -6001.85 -765.264C-6001.02 -765.264 -6000.32 -765.466 -5999.73 -765.872C-5999.15 -766.288 -5998.71 -766.826 -5998.44 -767.488L-5997 -766.832C-5997.19 -766.309 -5997.51 -765.818 -5997.97 -765.36C-5998.42 -764.901 -5998.98 -764.528 -5999.64 -764.24C-6000.29 -763.952 -6001.02 -763.808 -6001.85 -763.808ZM-5991.1 -763.808C-5991.93 -763.808 -5992.68 -764 -5993.36 -764.384C-5994.03 -764.778 -5994.56 -765.317 -5994.96 -766C-5995.35 -766.682 -5995.55 -767.456 -5995.55 -768.32C-5995.55 -769.184 -5995.36 -769.952 -5994.97 -770.624C-5994.58 -771.296 -5994.04 -771.829 -5993.37 -772.224C-5992.7 -772.618 -5991.94 -772.816 -5991.1 -772.816C-5990.27 -772.816 -5989.52 -772.618 -5988.84 -772.224C-5988.17 -771.84 -5987.64 -771.312 -5987.26 -770.64C-5986.87 -769.968 -5986.67 -769.194 -5986.67 -768.32C-5986.67 -767.445 -5986.87 -766.666 -5987.28 -765.984C-5987.68 -765.312 -5988.22 -764.778 -5988.89 -764.384C-5989.55 -764 -5990.29 -763.808 -5991.1 -763.808ZM-5991.1 -765.248C-5990.57 -765.248 -5990.09 -765.381 -5989.66 -765.648C-5989.22 -765.914 -5988.88 -766.282 -5988.64 -766.752C-5988.38 -767.221 -5988.25 -767.744 -5988.25 -768.32C-5988.25 -768.906 -5988.38 -769.424 -5988.64 -769.872C-5988.88 -770.33 -5989.22 -770.693 -5989.66 -770.96C-5990.09 -771.237 -5990.57 -771.376 -5991.1 -771.376C-5991.64 -771.376 -5992.14 -771.237 -5992.57 -770.96C-5993 -770.693 -5993.34 -770.33 -5993.6 -769.872C-5993.85 -769.424 -5993.98 -768.906 -5993.98 -768.32C-5993.98 -767.744 -5993.85 -767.221 -5993.6 -766.752C-5993.34 -766.282 -5993 -765.914 -5992.57 -765.648C-5992.14 -765.381 -5991.64 -765.248 -5991.1 -765.248ZM-5984.73 -764V-772.624H-5983.27V-770.864L-5983.48 -771.136C-5983.27 -771.68 -5982.93 -772.096 -5982.46 -772.384C-5981.99 -772.672 -5981.46 -772.816 -5980.87 -772.816C-5980.2 -772.816 -5979.6 -772.629 -5979.06 -772.256C-5978.52 -771.882 -5978.15 -771.392 -5977.94 -770.784L-5978.36 -770.768C-5978.14 -771.44 -5977.76 -771.946 -5977.22 -772.288C-5976.69 -772.64 -5976.1 -772.816 -5975.45 -772.816C-5974.85 -772.816 -5974.31 -772.677 -5973.83 -772.4C-5973.34 -772.122 -5972.95 -771.738 -5972.66 -771.248C-5972.38 -770.757 -5972.23 -770.202 -5972.23 -769.584V-764H-5973.74V-769.104C-5973.74 -769.584 -5973.82 -769.989 -5973.99 -770.32C-5974.16 -770.65 -5974.4 -770.906 -5974.7 -771.088C-5974.98 -771.28 -5975.32 -771.376 -5975.72 -771.376C-5976.1 -771.376 -5976.45 -771.28 -5976.76 -771.088C-5977.06 -770.906 -5977.3 -770.645 -5977.48 -770.304C-5977.65 -769.973 -5977.74 -769.573 -5977.74 -769.104V-764H-5979.24V-769.104C-5979.24 -769.584 -5979.33 -769.989 -5979.5 -770.32C-5979.67 -770.65 -5979.9 -770.906 -5980.2 -771.088C-5980.49 -771.28 -5980.83 -771.376 -5981.22 -771.376C-5981.61 -771.376 -5981.95 -771.28 -5982.26 -771.088C-5982.56 -770.906 -5982.8 -770.645 -5982.98 -770.304C-5983.15 -769.973 -5983.24 -769.573 -5983.24 -769.104V-764H-5984.73ZM-5970.12 -760.8V-772.624H-5968.66V-770.768L-5968.85 -771.136C-5968.53 -771.648 -5968.1 -772.053 -5967.54 -772.352C-5966.99 -772.661 -5966.35 -772.816 -5965.64 -772.816C-5964.83 -772.816 -5964.1 -772.618 -5963.46 -772.224C-5962.81 -771.829 -5962.3 -771.29 -5961.93 -770.608C-5961.55 -769.936 -5961.37 -769.168 -5961.37 -768.304C-5961.37 -767.461 -5961.55 -766.698 -5961.93 -766.016C-5962.3 -765.333 -5962.81 -764.794 -5963.46 -764.4C-5964.1 -764.005 -5964.83 -763.808 -5965.65 -763.808C-5966.35 -763.808 -5966.98 -763.962 -5967.56 -764.272C-5968.12 -764.581 -5968.56 -765.018 -5968.87 -765.584L-5968.63 -765.84V-760.8H-5970.12ZM-5965.77 -765.248C-5965.22 -765.248 -5964.74 -765.381 -5964.31 -765.648C-5963.88 -765.914 -5963.55 -766.277 -5963.32 -766.736C-5963.07 -767.205 -5962.95 -767.728 -5962.95 -768.304C-5962.95 -768.901 -5963.07 -769.424 -5963.32 -769.872C-5963.55 -770.33 -5963.88 -770.693 -5964.31 -770.96C-5964.74 -771.237 -5965.22 -771.376 -5965.77 -771.376C-5966.31 -771.376 -5966.8 -771.242 -5967.24 -770.976C-5967.66 -770.709 -5968.01 -770.341 -5968.26 -769.872C-5968.51 -769.413 -5968.63 -768.89 -5968.63 -768.304C-5968.63 -767.728 -5968.51 -767.205 -5968.26 -766.736C-5968.01 -766.277 -5967.66 -765.914 -5967.24 -765.648C-5966.8 -765.381 -5966.31 -765.248 -5965.77 -765.248ZM-5959.42 -764V-776.112H-5957.93V-764H-5959.42ZM-5951.65 -763.808C-5952.48 -763.808 -5953.22 -764.005 -5953.87 -764.4C-5954.53 -764.794 -5955.04 -765.333 -5955.41 -766.016C-5955.78 -766.709 -5955.97 -767.482 -5955.97 -768.336C-5955.97 -769.2 -5955.79 -769.968 -5955.43 -770.64C-5955.05 -771.312 -5954.55 -771.84 -5953.92 -772.224C-5953.28 -772.618 -5952.57 -772.816 -5951.78 -772.816C-5951.14 -772.816 -5950.57 -772.698 -5950.08 -772.464C-5949.58 -772.24 -5949.16 -771.93 -5948.82 -771.536C-5948.47 -771.152 -5948.2 -770.709 -5948.02 -770.208C-5947.83 -769.717 -5947.73 -769.205 -5947.73 -768.672C-5947.73 -768.554 -5947.74 -768.421 -5947.76 -768.272C-5947.77 -768.133 -5947.79 -768 -5947.81 -767.872H-5954.88V-769.152H-5948.67L-5949.38 -768.576C-5949.28 -769.13 -5949.34 -769.626 -5949.54 -770.064C-5949.74 -770.501 -5950.04 -770.848 -5950.43 -771.104C-5950.83 -771.36 -5951.28 -771.488 -5951.78 -771.488C-5952.28 -771.488 -5952.74 -771.36 -5953.15 -771.104C-5953.57 -770.848 -5953.9 -770.48 -5954.13 -770C-5954.35 -769.53 -5954.44 -768.97 -5954.4 -768.32C-5954.44 -767.69 -5954.35 -767.136 -5954.11 -766.656C-5953.87 -766.186 -5953.53 -765.818 -5953.09 -765.552C-5952.64 -765.296 -5952.16 -765.168 -5951.63 -765.168C-5951.06 -765.168 -5950.57 -765.301 -5950.18 -765.568C-5949.78 -765.834 -5949.46 -766.176 -5949.22 -766.592L-5947.97 -765.952C-5948.14 -765.557 -5948.41 -765.194 -5948.77 -764.864C-5949.12 -764.544 -5949.54 -764.288 -5950.03 -764.096C-5950.51 -763.904 -5951.05 -763.808 -5951.65 -763.808ZM-5942.29 -763.904C-5943.13 -763.904 -5943.78 -764.144 -5944.24 -764.624C-5944.69 -765.104 -5944.91 -765.781 -5944.91 -766.656V-771.2H-5946.48V-772.624H-5946.16C-5945.77 -772.624 -5945.47 -772.741 -5945.25 -772.976C-5945.02 -773.21 -5944.91 -773.52 -5944.91 -773.904V-774.608H-5943.42V-772.624H-5941.49V-771.2H-5943.42V-766.704C-5943.42 -766.416 -5943.38 -766.165 -5943.29 -765.952C-5943.2 -765.738 -5943.04 -765.568 -5942.83 -765.44C-5942.62 -765.322 -5942.33 -765.264 -5941.98 -765.264C-5941.91 -765.264 -5941.82 -765.269 -5941.71 -765.28C-5941.59 -765.29 -5941.49 -765.301 -5941.39 -765.312V-764C-5941.53 -763.968 -5941.68 -763.946 -5941.85 -763.936C-5942.03 -763.914 -5942.17 -763.904 -5942.29 -763.904ZM-5935.71 -763.808C-5936.54 -763.808 -5937.29 -764.005 -5937.94 -764.4C-5938.59 -764.794 -5939.1 -765.333 -5939.47 -766.016C-5939.85 -766.709 -5940.03 -767.482 -5940.03 -768.336C-5940.03 -769.2 -5939.85 -769.968 -5939.49 -770.64C-5939.12 -771.312 -5938.61 -771.84 -5937.98 -772.224C-5937.34 -772.618 -5936.63 -772.816 -5935.84 -772.816C-5935.2 -772.816 -5934.64 -772.698 -5934.14 -772.464C-5933.64 -772.24 -5933.22 -771.93 -5932.88 -771.536C-5932.53 -771.152 -5932.26 -770.709 -5932.08 -770.208C-5931.89 -769.717 -5931.79 -769.205 -5931.79 -768.672C-5931.79 -768.554 -5931.8 -768.421 -5931.83 -768.272C-5931.84 -768.133 -5931.85 -768 -5931.87 -767.872H-5938.94V-769.152H-5932.74L-5933.44 -768.576C-5933.34 -769.13 -5933.4 -769.626 -5933.6 -770.064C-5933.8 -770.501 -5934.1 -770.848 -5934.5 -771.104C-5934.89 -771.36 -5935.34 -771.488 -5935.84 -771.488C-5936.34 -771.488 -5936.8 -771.36 -5937.22 -771.104C-5937.63 -770.848 -5937.96 -770.48 -5938.19 -770C-5938.42 -769.53 -5938.51 -768.97 -5938.46 -768.32C-5938.51 -767.69 -5938.41 -767.136 -5938.18 -766.656C-5937.93 -766.186 -5937.59 -765.818 -5937.15 -765.552C-5936.7 -765.296 -5936.22 -765.168 -5935.7 -765.168C-5935.12 -765.168 -5934.64 -765.301 -5934.24 -765.568C-5933.85 -765.834 -5933.53 -766.176 -5933.28 -766.592L-5932.03 -765.952C-5932.2 -765.557 -5932.47 -765.194 -5932.83 -764.864C-5933.18 -764.544 -5933.61 -764.288 -5934.1 -764.096C-5934.58 -763.904 -5935.12 -763.808 -5935.71 -763.808ZM-5925.93 -763.808C-5926.74 -763.808 -5927.47 -764.005 -5928.12 -764.4C-5928.76 -764.794 -5929.27 -765.333 -5929.64 -766.016C-5930.02 -766.698 -5930.21 -767.461 -5930.21 -768.304C-5930.21 -769.168 -5930.02 -769.936 -5929.64 -770.608C-5929.27 -771.29 -5928.76 -771.829 -5928.12 -772.224C-5927.47 -772.618 -5926.74 -772.816 -5925.93 -772.816C-5925.22 -772.816 -5924.58 -772.661 -5924.03 -772.352C-5923.47 -772.053 -5923.04 -771.648 -5922.72 -771.136L-5922.96 -770.768V-776.112H-5921.45V-764H-5922.91V-765.84L-5922.72 -765.584C-5923.02 -765.018 -5923.45 -764.581 -5924.03 -764.272C-5924.59 -763.962 -5925.23 -763.808 -5925.93 -763.808ZM-5925.8 -765.248C-5925.26 -765.248 -5924.78 -765.381 -5924.35 -765.648C-5923.92 -765.914 -5923.59 -766.277 -5923.34 -766.736C-5923.08 -767.205 -5922.96 -767.728 -5922.96 -768.304C-5922.96 -768.89 -5923.08 -769.413 -5923.34 -769.872C-5923.59 -770.341 -5923.92 -770.709 -5924.35 -770.976C-5924.78 -771.242 -5925.26 -771.376 -5925.8 -771.376C-5926.34 -771.376 -5926.82 -771.237 -5927.26 -770.96C-5927.69 -770.693 -5928.02 -770.33 -5928.27 -769.872C-5928.51 -769.424 -5928.64 -768.901 -5928.64 -768.304C-5928.64 -767.728 -5928.51 -767.205 -5928.27 -766.736C-5928.02 -766.277 -5927.69 -765.914 -5927.26 -765.648C-5926.83 -765.381 -5926.35 -765.248 -5925.8 -765.248Z" stroke="black" stroke-width="2" stroke-linecap="round" stroke-linejoin="round"/>
</svg>
