<?xml version="1.0" encoding="UTF-8"?>
<svg id="Layer_2" data-name="Layer 2" xmlns="http://www.w3.org/2000/svg" viewBox="0 0 280.34 382.42">
  <defs>
    <style>
      .cls-1 {
        fill: #292924;
      }

      .cls-2 {
        fill: #f8f2ea;
      }

      .cls-3 {
        fill: #89a2b6;
      }

      .cls-4 {
        fill: #89a2b6;
      }

      .cls-5 {
        fill: #c26b2a;
      }

      .cls-6 {
        fill: none;
        stroke: #292924;
        stroke-linecap: round;
        stroke-miterlimit: 10;
        stroke-width: 3px;
      }
    </style>
  </defs>
  <g id="Layer_7" data-name="Layer 7">
    <rect class="cls-1" x="207.82" y="214.79" width="6.75" height="134.76" transform="translate(-127.12 183.36) rotate(-36.91)"/>
    <rect class="cls-1" x="134.25" y="232.92" width="6.75" height="134.76" transform="translate(29.81 -11.94) rotate(5.57)"/>
    <path class="cls-3" d="M245.54,333.05c1.08,2.44,1.26,2.55,3.52,1.58,2.26-.97,2.37-1.17,2.65-3.68.11-1-1.52-1.37-.89-2.12,1.09-1.31,5.73-2.63,7.45-2.34,3.41.56,6.35-1.87,8.95-4s5.99-4.2,9.22-2.88c3.08,1.26,4.44,5.25,3.73,8.45s-2.96,5.72-5.26,7.96c-6.11,5.94-13.12,10.83-20.1,15.69-.79.55-1.67,1.12-2.64.98-.97-.14-1.73-.93-2.39-1.68-2.38-2.68-4.7-5.42-6.96-8.21-1.08-1.34-2.21-2.87-2.11-4.55s3.92-7.29,4.85-5.21Z"/>
    <path class="cls-3" d="M134.84,361.63c.35,2.65.26,2.83-2.18,3.18s-2.63.23-4.17-1.76c-.62-.8.59-1.96-.34-2.28-1.61-.55-6.26.73-7.58,1.87-2.62,2.25-6.4,1.71-9.73,1.24-3.33-.47-7.3-.48-9.37,2.33-1.98,2.68-1.06,6.8,1.21,9.16,2.27,2.36,5.5,3.35,8.63,4.06,8.3,1.89,16.84,2.42,25.33,2.95.96.06,2.01.09,2.77-.53.75-.62.99-1.69,1.17-2.68.64-3.53,1.2-7.07,1.68-10.63.23-1.71.4-3.6-.56-4.98-.96-1.38-7.14-4.19-6.85-1.93Z"/>
    <path class="cls-4" d="M125.31,153.52c-22.71,11.44-38.04,34.61-39.22,59.27-.57,11.98,1.96,23.98,2.85,36,.89,12.01-.07,24.67-6.87,34.58,2.91,1.84,6.83.42,9.36-1.71,2.53-2.13,4.5-4.95,7.54-6.38,3.04-1.43,7.79-.54,8.6,2.66.61,2.41-1.3,4.85-.62,7.24.94,3.31,6.08,3.82,8.98,1.92,2.9-1.9,4.43-5.13,6.74-7.65,2.32-2.51,6.42-4.29,9.41-2.31,2.39,1.58,2.8,4.69,4.18,7.11,3.79,6.65,14.65,6.63,20.46,1.81,5.81-4.82,7.88-12.47,9.66-19.66,3.48,5.49,7.08,11.1,12.29,15.21,5.22,4.1,12.47,6.45,18.67,4.35,6.2-2.1,10.06-9.67,6.59-15.16-1.97-3.12-5.67-4.95-7.97-7.87-2.3-2.92-2.03-8.26,1.71-8.71,3.24-.39,5.37,3.09,7.41,5.59,3.42,4.16,9.82,6.55,14.58,4.15s5.28-10.31.26-12.55c7.88,2.58,16.38,3.27,24.47,1.98,5.65-.9,12.32-4.9,10.43-10.12-1.82-5.04-9.15-4.99-14.58-6.35-7.8-1.95-13.56-8.58-16.87-15.59-3.31-7.01-4.73-14.62-7.37-21.86-6.44-17.64-20.49-32.9-38.12-41.39-17.63-8.49-39.24-11.28-52.58-4.56Z"/>
    <path class="cls-5" d="M120.46,154.99c-21.87-41.6-43.73-83.2-65.6-124.81-3.25-6.19-6.61-12.95-5.43-19.83,1.18-6.88,9.29-12.84,15.37-9.29,2.85,1.67,4.4,4.82,5.78,7.79,22.29,47.81,44.57,95.62,66.86,143.43-4.77,3.02-9.54,6.04-14.31,9.06-.56-2.75-1.12-5.51-2.68-6.35Z"/>
    <ellipse class="cls-2" cx="117.12" cy="204.4" rx="18.75" ry="18.44"/>
    <ellipse class="cls-1" cx="123.95" cy="207.9" rx="11.92" ry="11.72"/>
    <ellipse class="cls-2" cx="164.12" cy="189.46" rx="18.75" ry="18.44"/>
    <ellipse class="cls-1" cx="170.95" cy="192.97" rx="11.92" ry="11.72"/>
    <path class="cls-6" d="M133.94,237.86c5.37,3.55,12.16,4.54,18.55,3.71s12.44-3.37,18.12-6.4c2.91-1.55,5.83-3.3,7.87-5.9s3.06-6.22,1.8-9.28"/>
    <path class="cls-6" d="M116.43,146.56c5.69.41,11.51-1.64,15.69-5.53"/>
    <path class="cls-6" d="M111.51,137.46c5.6,1.91,12.39-.76,15.19-5.98"/>
    <path class="cls-3" d="M206.29,183.88c1.85-3.48,3.78-7.06,6.78-9.4,3-2.34,7.39-3.11,10.56-.73,1.99,1.5,3.17,3.94,4.27,6.28,1.15,2.44,3.66,4.65,3.44,7.32-.43,5.13-5.95,7.98-10.06,10.37-4.12,2.4-9.64,2.79-13.5-.42-3.86-3.21-3.54-9.56-1.49-13.42Z"/>
    <path class="cls-3" d="M91,234.54c-3.55-2.13-7.24-4.31-11.36-4.86-4.12-.55-8.84.95-10.78,4.61-1.22,2.3-1.17,5.03-1.09,7.62.08,2.71-1.3,5.89.24,8.12,2.97,4.28,9.83,4.03,15.09,4.08,5.25.05,10.9-2.35,13.11-7.08,2.21-4.73-1.26-10.13-5.2-12.5Z"/>
    <path class="cls-1" d="M223.23,178.28c8.52-4.19,19.03-15.8,21.68-31.29,2.76-16.11-2.41-36.22,2.09-46.11,1.81-.34,3.48.36,4.52,2.13-4.24,9.89,1.25,30.26-1.46,45.97-3.01,17.47-14.43,30.06-24.19,34.76-.5-1.94-1.01-3.89-2.64-5.47Z"/>
    <path class="cls-1" d="M11.01,281.19c2.01-9.85,9.56-22.68,21.35-27.29,12.27-4.79,28.89-1.27,36-7.3,0-2.04-.81-3.8-2.36-4.75-7.14,5.75-24.02,1.91-35.98,6.6-13.3,5.22-21.48,19.17-23.71,30.43,1.61.35,3.22.69,4.7,2.31Z"/>
    <path class="cls-4" d="M247.64,102.23c-3.89-3.02-5.61-8.55-4.12-13.24.29-.91.73-1.83,1.53-2.34s2.05-.4,2.52.43c.27.49.23,1.13.58,1.57.61.78,1.97.33,2.42-.55s.29-1.93.19-2.91c-.21-2.02-.13-4.13.7-5.99s2.52-3.42,4.53-3.68c2.08-.27,4.15.89,5.45,2.53s1.94,3.7,2.37,5.75c.81,3.87.94,7.97-.35,11.71-1.29,3.74-4.16,7.05-7.93,8.24s-8.37-.15-7.9-1.53Z"/>
    <path class="cls-4" d="M9.59,280.48c-1.62-2.01-4.99-1.82-6.93-.11S.02,284.82,0,287.4c-.04,5.15,2.35,10.26,6.33,13.52.89.73,2,1.4,3.13,1.17,1.52-.31,2.25-2.05,2.53-3.58.46-2.5.4-5.1-.18-7.58-.18-.79-.42-1.6-.23-2.38s.99-1.49,1.75-1.25c.6.19.95.87,1.56,1.04.6.17,1.24-.24,1.52-.8s.26-1.21.17-1.82c-.43-3.03-2.56-5.76-5.39-6.92s-6.26-.71-1.6,1.69Z"/>
  </g>
</svg>