<svg width="22" height="21" viewBox="0 0 22 21" fill="none" xmlns="http://www.w3.org/2000/svg">
<path d="M16.2083 19.875H5.79167M16.2083 19.875H17.0448C18.2094 19.875 18.7917 19.875 19.2365 19.6479C19.6292 19.4479 19.9479 19.1292 20.1479 18.7375C20.375 18.2927 20.375 17.7094 20.375 16.5448V7.60417C20.375 7.13542 20.375 6.90104 20.325 6.67813C20.2806 6.47926 20.2072 6.28799 20.1073 6.11042C19.9969 5.9125 19.8406 5.74062 19.5344 5.4L16.6646 2.21042C16.3094 1.81667 16.1292 1.61667 15.9135 1.47292C15.719 1.34389 15.5042 1.24846 15.2781 1.19062C15.024 1.125 14.75 1.125 14.2031 1.125H4.95833C3.79167 1.125 3.20833 1.125 2.7625 1.35208C2.37051 1.55182 2.05182 1.87051 1.85208 2.2625C1.625 2.70833 1.625 3.29167 1.625 4.45833V16.5417C1.625 17.7083 1.625 18.2917 1.85208 18.7365C2.05208 19.1292 2.36979 19.4479 2.7625 19.6479C3.20729 19.875 3.79062 19.875 4.95521 19.875H5.79167M16.2083 19.875V15.9135C16.2083 14.749 16.2083 14.1656 15.9812 13.7208C15.7812 13.3287 15.4622 13.01 15.0698 12.8104C14.625 12.5833 14.0417 12.5833 12.875 12.5833H9.125C7.95833 12.5833 7.375 12.5833 6.92917 12.8104C6.53718 13.0101 6.21848 13.3288 6.01875 13.7208C5.79167 14.1667 5.79167 14.75 5.79167 15.9167V19.875M14.125 5.29167H7.875" stroke="#292924" stroke-width="2" stroke-linecap="round" stroke-linejoin="round"/>
</svg>
