<?xml version="1.0" encoding="UTF-8"?>
<svg id="Layer_2" data-name="Layer 2" xmlns="http://www.w3.org/2000/svg" viewBox="0 0 273.83 259.48">
  <defs>
    <style>
      .cls-1 {
        fill: #292924;
      }

      .cls-2 {
        fill: #89a2b6;
      }

      .cls-3 {
        fill: #89a2b6;
      }

      .cls-4 {
        fill: #c26b2a;
      }

      .cls-5 {
        fill: #f8f2ea;
      }

      .cls-6 {
        fill: #292924;
      }
    </style>
  </defs>
  <g id="Layer_9" data-name="Layer 9">
    <path class="cls-3" d="M217.57,90.33c3.19.98,5.49,3.27,8.09,5.11s6.16,3.31,9.3,2.23c2.03-.7,3.43-2.36,4.09-4.12.67-1.76.71-3.64.74-5.49.04-2.35.05-4.84-1.38-6.85-1.87-2.64-5.75-3.79-9.38-4.08-2.98-.24-6.07-.02-8.77,1.06-2.7,1.08-4.96,3.11-5.57,5.57-.61,2.46.36,5.8,2.88,6.58Z"/>
    <path class="cls-3" d="M96.23,80.37c-3.4-.89-5.86-2.96-8.63-4.62-2.77-1.66-6.58-2.99-9.93-2.01-2.17.63-3.66,2.13-4.37,3.73-.71,1.59-.75,3.3-.79,4.97-.05,2.13-.05,4.38,1.48,6.2,2,2.39,6.13,3.43,10.02,3.69,3.18.21,6.48.02,9.36-.96,2.88-.98,5.29-2.82,5.94-5.04.65-2.23-.39-5.25-3.07-5.95Z"/>
    <path class="cls-4" d="M20.89,34.26c-.42-1.42-2.4-1.5-3.71-.45s-1.98,2.78-2.25,4.38-.24,3.2-.58,4.8-1.14,3.33-2.52,4.22c-1.06.68-2.26.76-3.39.83s-2.34.18-3.38.92-1.74,2.32-1.14,3.21c.59.86,1.91.6,3.01.48s2.45.31,2.27,1.5c-.1.68-.67,1.25-1.19,1.74-2.57,2.44-4.95,5.12-7.08,7.99-.44.59-.89,1.25-.93,1.94-.1,1.54,1.95,1.83,3.25.88s2.07-2.53,3.09-3.83,2.71-2.43,3.87-1.77c-1.56,2.14-3.11,4.28-4.67,6.41-.42.58-.88,1.27-.76,1.9.12.68.91.92,1.59.69s1.27-.78,1.83-1.32c1.98-1.9,3.97-3.81,5.95-5.71-1.26,2.56-2.53,5.13-3.79,7.69-.45.91-.9,1.98-.52,2.75.33.66,1.19.79,1.94.5s1.41-.9,2-1.54c1.91-2.05,3.45-4.51,4.43-7.11.23-.6.56-1.34,1.13-1.46.66-.13.95.75.72,1.45s-.76,1.3-1.05,1.98-.23,1.61.39,1.71c1.56.23,3.35-1.02,4.35-2.63s1.34-3.47,1.45-5.23c.18-2.98-.24-5.84-.14-8.82.1-2.97.84-6.23,2.87-8.7,1.25-1.51,3.02-2.81,3.46-4.65.48-2.05-.99-3.61-2.53-4.46-3.08-1.68-6.97-1.98-7.95-.3Z"/>
    <path class="cls-6" d="M259.78,153.85c-6.28-9.37-12.55-18.75-18.83-28.12-2.7-4.03-5.83-8.34-10.91-9.03,7.49,15.72,16.93,30.25,28.09,43.24,1.51-.97,2.53-2.77,2.49-4.4-.03-1.64-1.11-3.02-.84-1.68Z"/>
    <path class="cls-4" d="M258.75,155.19c.68-1.85,1.83-3.62,3.29-5.1,0,.95.02,1.9.03,2.86,1.42-.8,3.04-1.03,4.34-.61-.72.44-.72,1.53-.19,1.96s1.35.4,2.1.41c.75,0,1.57.1,1.94.67-.83.47-1.55,1.19-2.01,2.02,1.65-.05,3.19.43,4.33,1.36-.84.24-1.67.75-2.3,1.43l3.56,2.42c-.71.09-1.44.54-1.92,1.17.47.36.95.73,1.2,1.28s.23,1.31-.24,1.89c-.47.58-1.42.76-1.71.24.05,1.61-.32,3.48-1.61,4.8s-3.65,1.62-4.2.21c.29,1.09-.81,2.62-2.04,2.83-.29-.9-.57-1.79-.86-2.69-.7,1.22-2.2,2.05-3.41,1.88.66-.28.74-1.29.27-1.65-.47-.36-1.19-.29-1.86-.27s-1.39-.05-1.68-.58c-.4-.74.3-1.82.95-2.64-1.68-.04-3.29-.39-4.72-1.02.5-.91,1-1.82,1.5-2.73-1.18-.17-2.36-.34-3.54-.5,1.34-1.92,3-3.65,4.86-5.08-.54-.54-1.07-1.07-1.61-1.61,2.36.14,5.11-1.85,5.52-2.98Z"/>
    <path class="cls-2" d="M122.93,245.47c.42,1.65.36,1.78-1.28,2.15-1.65.37-1.79.31-2.98-.86-.48-.47.27-1.28-.39-1.42-1.14-.25-4.25.85-5.08,1.65-1.64,1.59-4.28,1.48-6.59,1.38s-5.04.15-6.28,2.05c-1.18,1.82-.27,4.37,1.45,5.72,1.72,1.35,4,1.78,6.2,2.04,5.83.69,11.72.49,17.59.3.66-.02,1.38-.07,1.86-.51.48-.44.57-1.13.62-1.77.2-2.27.35-4.55.44-6.83.04-1.09.03-2.3-.72-3.12-.75-.82-5.18-2.21-4.83-.8Z"/>
    <rect class="cls-1" x="165.34" y="164.48" width="4.65" height="85.66"/>
    <rect class="cls-1" x="118.41" y="163.67" width="4.65" height="85.66"/>
    <path class="cls-2" d="M165.54,246.28c-.42,1.65-.36,1.78,1.28,2.15s1.79.31,2.98-.86c.48-.47-.27-1.28.39-1.42,1.14-.25,4.25.85,5.08,1.65,1.64,1.59,4.28,1.48,6.59,1.38s5.04.15,6.28,2.05c1.18,1.82.27,4.37-1.45,5.72s-4,1.78-6.2,2.04c-5.83.69-11.72.49-17.59.3-.66-.02-1.38-.07-1.86-.51-.48-.44-.57-1.13-.62-1.77-.2-2.27-.35-4.55-.44-6.83-.04-1.09-.03-2.3.72-3.12.75-.82,5.18-2.21,4.83-.8Z"/>
    <path class="cls-3" d="M176.05,192.8c15.87-3.68,25.31-13.35,33.51-23.42,2.73-3.45,2.43-11.28,7.1-13.19,8.84-3.6,8.14-14.18,7.35-21.47-7.65-4.3-16.74-4.88-25.36-6.58-.29-1.62.18-6.74-.11-8.36,6.4-.03,14.78-3.17,17.52-5.08,9.4-23.91,11.44-47.41,9.74-73.04,9.1.64,11.71-5.27,10.51-13.48-1.82-11.62-14.67-21.26-25.5-24.96C194.44-.48,37.91-8.5,84.15,31.8c6.04,28.99-7.04,85.86,34.71,87,1.4.26,1.21,3.7,1.06,5.42-18.82,3.67-40.13.45-57.1,10.36-5.32,4.12-5.97,12.96-1.83,18.02,2.28,2.79,5.99,2.57,8.04,4.34,2.69,2.32,3.49,9.53,6.52,13.35,7.73,9.73,19.73,14.87,31.69,19.48,7.56,2.91,23.98,6.02,35.46,6.02"/>
    <path class="cls-5" d="M93.87,134.76c15.92-3.43,32.05-6.16,48.33-6.63s32.75,1.36,48.08,6.85c2.37.85,5.02,2.12,5.62,4.57.41,1.68-.33,3.47-1.52,4.72s-2.78,2.03-4.37,2.69c-8.74,3.64-18.39,4.35-27.85,4.7-20.76.76-41.93-.12-61.57-6.86-2.44-.84-4.95-1.83-6.62-3.8s-2.35-5.76-.1-6.24Z"/>
    <ellipse class="cls-5" cx="130.05" cy="58.9" rx="14.18" ry="14.5"/>
    <ellipse class="cls-6" cx="132.08" cy="62.9" rx="7.01" ry="7.17"/>
    <ellipse class="cls-5" cx="176.05" cy="58.9" rx="14.18" ry="14.5"/>
    <ellipse class="cls-6" cx="178.08" cy="62.9" rx="7.01" ry="7.17"/>
    <path class="cls-6" d="M142.39,84.91c2.9.8,5.83,1.6,8.83,1.82s6.12-.18,8.75-1.63c.71-.39,1.41-.87,2.21-1.01s1.77.18,2.04.95c.41,1.14-.86,2.13-1.95,2.67-3.36,1.64-6.91,3.06-10.63,3.28s-7.69-.95-10.14-3.77c-.38-.43-.73-.95-.72-1.52s.52-1.08,1.61-.78Z"/>
    <path class="cls-6" d="M237.48,91.74c6.99,1.9,12.66,7.69,14.92,14.57,2.27,6.88,1.27,14.65-2.17,21.02-1.02,1.9-2.28,3.74-2.63,5.87s.53,4.67,2.58,5.34c3.2-6.03,5.91-12.41,6.98-19.16s.4-13.91-2.86-19.91-9.31-10.65-16.11-11.29c-.29,1.65-.57,3.31-.72,3.57Z"/>
    <path class="cls-6" d="M72.47,85.91c-10.02-3.5-20.05-7.42-28.59-13.73-8.54-6.3-15.53-15.31-17.36-25.76,1.05-.15,2.11-.31,3.16-.46,7.65,17.78,24.96,31.03,44.11,33.77.5,1.75.16,3.72-1.33,6.18Z"/>
    <path class="cls-3" d="M248.51,133.76c-.59-.55-1.22-1.11-2-1.34s-1.75,0-2.11.73c-.39.78.06,1.71.55,2.44,1.04,1.55,2.28,2.96,3.68,4.2.64.57,1.47,1.14,2.29.89.61-.19,1.02-.81,1.11-1.44s-.09-1.27-.34-1.86c-.81-1.94-2.4-3.54-3.19-3.62Z"/>
    <path class="cls-3" d="M240.76,134.59l-2.01,1.43c.18.99.36,2,.84,2.89s1.31,1.64,2.31,1.76,2.1-.59,2.19-1.59c.11-1.23-1.14-2.08-2.23-2.66-1.01-.53-2.34-1.03-1.1-1.82Z"/>
    <path class="cls-3" d="M22.74,43.89c-.76.19-1.54.4-2.14.89s-.98,1.36-.67,2.07c.28.65.99.97,1.65,1.22,2.69,1,5.73,1.68,8.37.57,1.89-.79,3.4-2.55,3.66-4.58s-.86-4.22-2.76-4.99c-.49-.2-1.09-.29-1.51.03-.24.19-.38.47-.52.75-1.36,2.62-4.04,4.52-6.08,4.04Z"/>
  </g>
</svg>