<svg width="25" height="25" viewBox="0 0 25 25" fill="none" xmlns="http://www.w3.org/2000/svg">
<path d="M10.4167 16.6667H5.20833V21.875M14.5833 8.33333H19.7917V3.125M4.77396 9.37813C5.35812 7.93276 6.336 6.68023 7.59649 5.76288C8.85697 4.84554 10.3495 4.30016 11.9045 4.18872C13.4594 4.07729 15.0145 4.40427 16.3929 5.13251C17.7713 5.86074 18.9178 6.96103 19.7021 8.30833M20.2271 15.6219C19.643 17.0675 18.6652 18.3203 17.4046 19.2378C16.144 20.1554 14.6513 20.7009 13.0961 20.8123C11.5409 20.9238 9.9857 20.5967 8.60717 19.8683C7.22864 19.1398 6.08211 18.0393 5.29791 16.6917" stroke="#292924" stroke-width="2" stroke-linecap="round" stroke-linejoin="round"/>
</svg>
