<?xml version="1.0" encoding="UTF-8"?>
<svg id="Layer_2" data-name="Layer 2" xmlns="http://www.w3.org/2000/svg" viewBox="0 0 349.01 358.61">
  <defs>
    <style>
      .cls-1 {
        fill: #292924;
      }

      .cls-2 {
        fill: #c26b2a;
      }

      .cls-3 {
        fill: #f8f2ea;
      }

      .cls-4 {
        fill: #292924;
      }
    </style>
  </defs>
  <g id="Layer_9" data-name="Layer 9">
    <rect class="cls-1" x="277.62" y="209.16" width="6.79" height="134.76"/>
    <polygon class="cls-1" points="161.01 326.02 216.35 203 222.54 205.76 167.2 328.77 161.01 326.02"/>
    <path class="cls-2" d="M277.9,337.85c-.61,2.6-.53,2.79,1.87,3.38s2.61.48,4.35-1.35c.7-.73-.4-2.01.56-2.24,1.67-.39,6.19,1.34,7.41,2.6,2.4,2.5,6.24,2.32,9.61,2.18s7.36.23,9.16,3.23c1.72,2.86.4,6.87-2.11,9s-5.84,2.8-9.04,3.21c-8.5,1.08-17.09.78-25.64.48-.96-.03-2.02-.11-2.72-.8-.69-.69-.83-1.78-.91-2.78-.3-3.58-.51-7.16-.64-10.74-.06-1.72-.04-3.62,1.05-4.91s7.56-3.47,7.04-1.25Z"/>
    <path class="cls-2" d="M169.52,323.15c-.52,2.62-.66,2.77-3.09,2.32s-2.58-.62-3.42-3c-.34-.95,1.19-1.67.4-2.27-1.36-1.04-6.2-1.29-7.83-.63-3.21,1.31-6.65-.41-9.67-1.92-3.02-1.5-6.81-2.77-9.68-.77-2.74,1.91-3.18,6.11-1.77,9.07,1.41,2.96,4.18,4.93,6.93,6.6,7.31,4.43,15.28,7.65,23.21,10.85.89.36,1.89.72,2.81.37.92-.35,1.48-1.29,1.97-2.17,1.74-3.14,3.4-6.33,4.99-9.55.76-1.54,1.53-3.29,1.06-4.91-.47-1.62-5.47-6.24-5.91-4Z"/>
    <path class="cls-2" d="M170.34,178.08c0,16.58,2,25.65,5.29,33.43,2.2,5.2,9.68,14.03,13.95,17.67,3.92,3.34,10.08,6.83,18.66,8.49,17.52,3.74,35.44,5.78,53.4,6.09,9.75.17,19.67-.2,28.93-3.08,9.26-2.87,17.9-8.54,22.29-16.74,5.27-9.85,2.66-21.46,1.69-32.45-4.48-50.56-28.69-99.43-64.2-137.54-7.83-8.41-18.46-16.85-30.14-14.8-10.8,1.9-17.49,11.93-22.3,21.23-18.5,35.72-29.29,74.97-27.57,117.7Z"/>
    <path class="cls-3" d="M208.39,98.47c9.23,1.58,15.49,10.44,13.98,19.79-1.51,9.36-10.22,15.66-19.46,14.09-9.23-1.58-15.49-10.44-13.98-19.79,1.51-9.36,10.22-15.66,19.46-14.09Z"/>
    <ellipse class="cls-4" cx="199.49" cy="117.27" rx="10.77" ry="11.18" transform="translate(31.64 276.56) rotate(-73.95)"/>
    <ellipse class="cls-4" cx="231.79" cy="157.39" rx="9.18" ry="9.3" transform="translate(-43.4 210) rotate(-45)"/>
    <path class="cls-3" d="M258.31,98.28c9.26,1.39,15.69,10.12,14.36,19.5-1.33,9.38-9.92,15.87-19.19,14.48-9.26-1.39-15.69-10.12-14.36-19.5s9.92-15.87,19.19-14.48Z"/>
    <ellipse class="cls-4" cx="249.78" cy="117.25" rx="10.77" ry="11.18" transform="translate(75.8 331.43) rotate(-76.06)"/>
    <path class="cls-4" d="M84.62,194.44c1.1-2.2,2.57-4.68,5.19-5.14,1.91-.33,3.79.55,5.49,1.41,1.67.84,3.34,1.68,5.01,2.53,1.7.86,3.44,1.74,4.79,3.01,1.35,1.28,2.28,3.04,2.02,4.79-.31,2.08-2.29,3.76-4.54,4.28-2.24.53-4.65.05-6.72-.88s-3.87-2.29-5.65-3.64c-1.26-.95-2.52-1.91-3.78-2.86-.67-.51-1.37-1.05-1.74-1.77s-.34-1.69-.07-1.74Z"/>
    <path class="cls-4" d="M51.88,283.6c1.74,1.03,2.58,3,2.57,4.89s-.76,3.7-1.63,5.41c-.79,1.55-1.87,3.2-3.68,3.67-1.5.39-3.08-.14-4.52-.67-2.7-.98-5.4-1.95-8.1-2.93-.81-.29-1.69-.65-2.03-1.38-.3-.65-.06-1.39.18-2.07,1-2.81,2-5.62,3-8.42.22-.61.48-1.27,1.07-1.6.65-.37,1.5-.23,2.25-.08,3.71.74,7.59,1.23,10.89,3.19Z"/>
    <path class="cls-4" d="M99,201.54c-15.84,29.15-31.67,58.3-47.51,87.45-4.15-1.84-8.3-3.68-12.45-5.52,13.62-30.18,29.4-59.57,47.2-87.92,4.28,1.47,8.56,2.93,12.75,5.99Z"/>
    <path class="cls-4" d="M54.23,293.13c9.06,2.72,18.13,5.43,27.19,8.15,1.76.53,3.59,1.09,4.94,2.24,3.15,2.67,2.62,7.27,1.85,11.14-.24,1.22-.56,2.56-1.65,3.32-1.16.82-2.79.68-4.24.5-27.51-3.4-54.79-8.31-81.63-14.7-1.67-2.8-.13-6.49,2.59-8.52,2.72-2.03,6.3-2.78,9.76-3.35,13.6-2.24,27.79-2.79,41.18,1.22Z"/>
    <path class="cls-2" d="M167.14,166.26c-3.77-.83-7.66-1.71-10.7-3.95-3.05-2.24-5.06-6.22-3.79-9.87.8-2.3,2.71-4.08,4.55-5.75,1.92-1.75,3.23-4.74,5.76-5.24,4.87-.97,9.14,3.53,12.57,6.82,3.43,3.28,5.43,8.44,3.59,12.98-1.84,4.54-7.81,5.94-11.99,5.02Z"/>
    <path class="cls-2" d="M308.14,142.1c3.86-.13,7.84-.23,11.35,1.18s6.44,4.78,6.11,8.63c-.21,2.43-1.62,4.62-2.99,6.7-1.43,2.17-1.96,5.39-4.29,6.5-4.48,2.14-9.73-1.17-13.86-3.5-4.14-2.33-7.34-6.84-6.68-11.69.66-4.85,6.1-7.68,10.38-7.82Z"/>
    <path class="cls-4" d="M92.71,191.96c13.27-25.73,20.35-54.63,20.49-83.58.09-18.47-2.57-37.23,1.5-55.25,3.95-17.5,14.54-33.6,29.62-43.32s34.59-12.65,51.56-6.84c16.97,5.81,30.83,20.56,34.63,38.09-5.36,3.94-11.79,6.4-18.4,7.07.26-10.3-6.21-20.13-15.17-25.24-8.95-5.1-19.98-5.83-29.99-3.39-19.54,4.75-35.5,21.84-38.9,41.66-2.06,12.01.15,24.27.99,36.43,2.44,35.23-7.08,71.18-26.62,100.59-2.83-3.42-6.51-6.12-9.7-6.22Z"/>
    <path class="cls-4" d="M154.78,148.21c-4.45-2.22-6.94-7.13-8.06-11.97s-1.18-9.89-2.33-14.73c-1.15-4.84-3.71-9.72-8.2-11.87-1.77-.85-3.77-1.23-5.4-2.34s-2.77-3.35-1.77-5.04c5.99,2.08,12.35,4.43,16.08,9.56,3.27,4.5,3.91,10.31,4.68,15.82s1.96,11.37,5.93,15.26c.75.74,1.6,1.4,2.18,2.27s.85,2.06.34,2.98-2,1.23-2.63.39c-.24-.38-.48-.76-.82-.33Z"/>
    <path class="cls-2" d="M126.99,101.87c-1.51-1-2.89-2.37-3.32-4.13s.42-3.9,2.15-4.42c1.12-.34,2.37.06,3.29.8s1.53,1.78,2.03,2.84c1.77,3.77,2.14,8.49-.18,11.94-.39.58-.96,1.16-1.66,1.11-.66-.05-1.14-.68-1.29-1.32s-.04-1.31-.02-1.96c.08-1.94-.51-3.9-1.01-4.86Z"/>
    <path class="cls-2" d="M113.08,97.51c.78,4.8.74,9.74-.11,14.53-2.96-4.3-3.02-10.41.11-14.53Z"/>
    <path class="cls-4" d="M322.65,155.94c9.76,6.78,15.18,18.5,16.94,30.26,1.76,11.76.31,23.73-1.14,35.53-1.26-.27-2.53-.54-3.79-.82,1.44-11.14,2.68-22.48.93-33.58s-6.83-22.1-15.89-28.76c.79-.96,1.59-1.91,2.95-2.63Z"/>
    <path class="cls-4" d="M312.77,222.8c4.16,4.54,9.82,7.69,15.87,8.84,3.7.7,7.82.8,10.63,3.31,2.35,2.1,3.19,5.46,3.23,8.61.07,5.64-2.57,11.8-7.84,13.84-3.99,1.54-8.82.27-11.73-2.87-2.91-3.13-3.84-7.88-2.6-11.97,1.24-4.09,4.52-7.45,8.48-9.06-1.44-1.25-3.7-.48-5.26.62-4.17,2.95-6.78,8.06-6.53,13.16.24,5.1,3.41,10.01,8.04,12.16,4.63,2.16,10.53,1.36,14.31-2.07,2.68-2.44,4.19-5.91,5.17-9.4,1.14-4.05,1.63-8.6-.33-12.33-2.78-5.28-9.32-7.12-15.19-8.22-5.86-1.1-12.39-2.37-15.88-7.21-.19.92-.39,1.83-.37,2.58Z"/>
    <path class="cls-2" d="M334.97,220.11c-1.77-.12-3.63.15-5.09,1.16s-2.41,2.87-1.99,4.59c.25,1.04,1.1,2.01,2.17,2.08s2.14-1.05,1.76-2.06c1.01-.25,1.77,1.01,1.75,2.06s-.42,2.12-.09,3.11c.49,1.45,2.36,1.97,3.86,1.65,2.95-.64,5-3.84,4.6-6.83-.46-3.43-4.02-6.12-6.97-5.77Z"/>
    <path class="cls-4" d="M320.12,254.84c-5.53-3.39-8.16-10.87-5.95-16.98,2.21-6.1,9.01-10.18,15.43-9.25l.32,2.14c-3-.35-5.85,1.33-8.2,3.23-1.98,1.6-3.84,3.46-4.91,5.78s-1.23,5.17.09,7.35c.69,1.15,1.74,2.04,2.51,3.14s1.23,2.6.71,4.58Z"/>
    <path class="cls-4" d="M331.98,232.03c4.34,3.19,6.65,8.93,5.73,14.24-.92,5.31-5.04,9.93-10.2,11.47.76,1.08,2.13,1.63,3.45,1.6s2.58-.59,3.66-1.36c4.01-2.88,5.23-8.29,5.4-13.22.1-3.08-.12-6.3-1.63-8.99s-4.6-4.69-6.4-3.74Z"/>
    <path class="cls-4" d="M326.89,234.09c5.59,2.96,7.33,10.29,6.57,16.57s-3.38,12.22-4.07,18.5c-1.02,9.24,2.42,18.87,9.08,25.36.7-.66,1.41-1.32,2.11-1.97-6.94-4.76-8.74-14.33-7.94-22.71s3.58-16.58,3.36-24.99c-.08-3.2-.66-6.53-2.55-9.12-1.89-2.59-5.37-4.21-8.4-3.17-.37.86-.74,1.72-1.1,2.58,1.97.2,3.93.41,2.94-1.05Z"/>
    <path class="cls-4" d="M339.82,292.46c-1.58.79-2.78,2.3-3.19,4.02s-.02,3.61,1.03,5.03c.46.61,1.09,1.17,1.85,1.24.95.09,1.79-.56,2.5-1.19,1.8-1.6,3.5-3.3,5.09-5.1.73-.83,1.49-1.85,1.28-2.94-.24-1.17-1.51-1.83-2.68-2.08-3.03-.65-6.35.35-5.88,1.01Z"/>
    <path class="cls-4" d="M344.62,297.99l2.49,2.32c.26.24.55.5.91.53.75.07,1.2-.95.89-1.64s-1.05-1.05-1.74-1.34-1.44-.58-1.86-1.2c-.15.38-.31.76-.68,1.32Z"/>
    <path class="cls-4" d="M340.84,301.24c.6-.02,1.1.44,1.47.91s.71,1.01,1.25,1.27,1.35.06,1.46-.53c.06-.34-.13-.67-.32-.96-.77-1.11-1.8-2.05-2.98-2.71-.28.74-.31,1.58-.87,2.01Z"/>
  </g>
</svg>