<svg width="21" height="19" viewBox="0 0 21 19" fill="none" xmlns="http://www.w3.org/2000/svg">
<path d="M10.5 6.37524V10.5419M2.56147 12.8336C1.61355 14.4742 1.14064 15.295 1.21147 15.969C1.24206 16.2591 1.33326 16.5396 1.47914 16.7923C1.62503 17.0449 1.82236 17.2641 2.05834 17.4357C2.60626 17.8336 3.55314 17.8336 5.44793 17.8336H15.5552C17.4479 17.8336 18.3948 17.8336 18.9417 17.4357C19.178 17.2641 19.3756 17.0448 19.5216 16.7919C19.6677 16.5391 19.759 16.2584 19.7896 15.968C19.8604 15.295 19.3875 14.4742 18.4396 12.8325L13.3875 4.08253C12.4406 2.44295 11.9667 1.62212 11.3479 1.34712C11.0812 1.22836 10.7925 1.16699 10.5005 1.16699C10.2086 1.16699 9.91986 1.22836 9.65314 1.34712C9.03543 1.62212 8.56147 2.44295 7.61459 4.08149L2.56147 12.8336ZM10.5531 13.6669V13.7711H10.449V13.6669H10.5531Z" stroke="black" stroke-width="2" stroke-linecap="round" stroke-linejoin="round"/>
</svg>
